<svg xmlns="http://www.w3.org/2000/svg" xmlns:xlink="http://www.w3.org/1999/xlink" width="878" height="878" viewBox="0 0 878 878">
  <defs>
    <clipPath id="clip-path">
      <path id="Path_55643" data-name="Path 55643" d="M0,0H878V878H0ZM0,0"/>
    </clipPath>
  </defs>
  <g id="Group_44056" data-name="Group 44056" transform="translate(-1417 -378)">
    <g id="Ellipse_2009" data-name="Ellipse 2009" transform="translate(1417 378)" fill="#fff" stroke="#707070" stroke-width="1">
      <circle cx="439" cy="439" r="439" stroke="none"/>
      <circle cx="439" cy="439" r="438.5" fill="none"/>
    </g>
    <g id="surface1" transform="translate(1417 378)">
      <g id="Group_44050" data-name="Group 44050" clip-path="url(#clip-path)">
        <path id="Path_55642" data-name="Path 55642" d="M871.522-178.46c0,239.7-194.316,434.017-434.012,434.017S3.5,61.241,3.5-178.46,197.81-612.47,437.51-612.47,871.522-418.154,871.522-178.46Zm0,0" transform="translate(1.489 617.459)" fill="none" stroke="#333290" stroke-width="6"/>
      </g>
      <path id="Path_55644" data-name="Path 55644" d="M51.191,364a366.428,366.428,0,0,0,12.745,49.661q3.83-5.492,7.743-10.767c-.975-2.952-1.839-5.933-2.625-8.94L104.962,383.9a72.548,72.548,0,0,0,10.125-3.3c8.314-4.647,11.421-9.737,10.147-15.769-.953-3.955-6.741-8.148-17.276-13.581-5.772-2.886-12.823-3.922-21.336-2.815a18.754,18.754,0,0,0-10.79,4.825,9.941,9.941,0,0,0-3.34,9.516,8.453,8.453,0,0,0,4.608,6.391,12.384,12.384,0,0,0,8.63.854,9.474,9.474,0,0,0,6.187-4.088,8.875,8.875,0,0,0,1.429-6.564c3.617.089,7.527,1.374,12.152,3.617,4.83,2.437,7.494,4.747,8.037,7.128.421,1.873-.4,3.074-2.5,3.606L66.6,384.955a399.638,399.638,0,0,1-8.3-43.978q-4.528,5.332-9.012,10.944l.1,2.643c-6.857.825-11.947,4.674-14.883,11.841-1.95,4.73-1.6,11.637,1.4,20.423,1.185,4.176,1.811,6.1,1.761,5.832.166.625,1.08,3.013,2.747,7.139a13.221,13.221,0,0,1,.4,4.986c-.144,2.2-.582,3.61-1.374,4.231a8.871,8.871,0,0,1-2.481,1.618c-.814.243-1.955-.045-3.417-.892a13.585,13.585,0,0,0-3.927,1.755,2.663,2.663,0,0,0-.083,2.11,4.288,4.288,0,0,0,3.279,3.324,12.054,12.054,0,0,0,8.358.011c3.971-1.269,6.929-4.166,8.923-8.552a25.61,25.61,0,0,0,1.252-18.1c-.266-.942-.792-2.459-1.5-4.576-1.695-5.272-2.93-9.532-3.639-12.756-1.324-4.47-.4-7.334,2.747-8.54q1.537-.317,2.243-.415" transform="translate(12.269 145.295)" fill="#333290"/>
      <path id="Path_55645" data-name="Path 55645" d="M109.6,362.359c.637,6.026,1.468,10.109,2.293,12.236,2.1,8.868.288,14.258-6.453,16.428q-4.063,1.289-6.137.4l-4.315,6.636a96.446,96.446,0,0,0,12.479-1.441,25.607,25.607,0,0,0,3.29-.881c12.7-4.386,17.071-11.925,14.251-22.9a179.209,179.209,0,0,1-3.656-17.869,8.059,8.059,0,0,1,2.83-6.53q2.31-1.561,4.736-3.3c1.269-1.5,2.437-3.053,3.606-4.686l-67.68,11.139c3.755,2.264,7.561,4.437,11.316,6.541l37.388-7.1a12.418,12.418,0,0,0-3.949,11.327" transform="translate(27.104 145.006)" fill="#333290"/>
      <path id="Path_55646" data-name="Path 55646" d="M48.175,360.026a54.658,54.658,0,0,0,2.387,9.188c2.659-3.76,5.384-7.449,8.264-11.077q-.224-1.512-.316-2.144a9.326,9.326,0,0,1,1.551-6.569,10.376,10.376,0,0,1,5.628-4.315,21.427,21.427,0,0,1,3.739-.942l53.14-6.33q5.159-4.471,10.33-8.664l-76.769,7.189c-.521-4.325-.676-8.685-.975-13.027-3.4,3.362-6.818,6.823-10.164,10.368l.449,4.4a12.583,12.583,0,0,1-1.678,1.607,33.234,33.234,0,0,1-7.544,2.493l-4.3,6.425q11.815-1.4,18.633-2.842l2.365-.482c-4.221,3.263-5.661,8.2-4.741,14.717" transform="translate(13.34 137.679)" fill="#333290"/>
      <path id="Path_55647" data-name="Path 55647" d="M72.766,325.482c2.62-1.3,4.5-1.921,5.633-1.927a5.022,5.022,0,0,1,2.714.919c1.723.92,2.6,2.06,2.625,3.451.006.233-1.141,1.866-3.445,4.98l8.823,2.453c5.738-5.66,8.585-9.438,8.535-11.759a7.281,7.281,0,0,0-3.068-6.186,86.908,86.908,0,0,0-13.77-7.589,52.88,52.88,0,0,1-6.037-3.562c.471.023.62-.172.443-.576a2.854,2.854,0,0,1-.393-1.456,3.787,3.787,0,0,1,2.348-3.1,4.6,4.6,0,0,1,2.3-1.285,8.2,8.2,0,0,1,2.947-.52l34.79,2.264q4.337-3.754,8.646-7.3l-73.423-6.724c.222-4.1.892-8.153,1.363-12.224-3.9,2.731-7.893,5.544-11.737,8.464a377.983,377.983,0,0,0,.05,75.672c3.2-3.612,6.359-7.129,9.748-10.568l-.637-10.3,1.623-1.346a23.772,23.772,0,0,0,3.362-8.813c.87-5.55,3.373-9.039,7.339-10.474a7.388,7.388,0,0,1,2.853-.459,20.842,20.842,0,0,1,3.091,1.241c.753.41,1.224.454,1.418.133,0,.16-1.346.864-4.021,2.154-4.077,1.938-6.6,4.155-7.693,6.57a12.01,12.01,0,0,0-2.277,6.535c.011,3.169,1.5,6.038,4.049,8.536a11.41,11.41,0,0,0,9.117,3.339c4.736-.166,7.522-2.043,8.347-5.571a11.541,11.541,0,0,0,.858-4.547,6.993,6.993,0,0,0-2.526-4.841,7.52,7.52,0,0,0-5.478-2.333,5.767,5.767,0,0,0-2.132.5C69.41,327.8,70.617,326.534,72.766,325.482Zm-3.207-26.991-.77-2.969c-3.933,1.828-6.691,3.817-8.27,5.889-1.833,2.4-2.1,4.658-1.246,6.684a42.357,42.357,0,0,0,4.941,6.47,7.664,7.664,0,0,0,1.213-3.19q.041-1.478-4.221-1.623a14.371,14.371,0,0,0-10.192,3.661c.166-5.361.161-10.734.681-16.084l17.863,1.163" transform="translate(16.798 117.349)" fill="#333290"/>
      <path id="Path_55648" data-name="Path 55648" d="M64.133,228.223l-10.973.138c-6.8,3.429-11.671,6.569-14.567,9.161C29.615,246,23.882,255.281,22.276,264.663a21.829,21.829,0,0,0,.349,10.2,31.5,31.5,0,0,0,4.824,10.989,49.265,49.265,0,0,0,8.281,8.037,13.93,13.93,0,0,0,6.719,2.293,7.257,7.257,0,0,0,4.63-.93c1.39-.814,2.709-1.667,3.971-2.564-.753,5.643-1.462,11.3-1.795,16.987,3.822-2.952,7.455-5.832,11.449-8.591l1.052-8.3,63.371,8.336c3.805-2.222,7.406-4.382,11.322-6.4L63.1,283.085l2.326-13.033q-6.073,3.7-12.18,7.671l-1.113,6.48-5.024,1.258c-.764.067-2.432-1.107-4.963-3.583a45.793,45.793,0,0,1-4.564-5.136l-1.684-3.49a21.891,21.891,0,0,1-1.1-13.016c1.95-8.3,6.032-15.254,12.861-20.3q8.292-6.106,16.473-11.714" transform="translate(9.13 97.26)" fill="#333290"/>
      <path id="Path_55649" data-name="Path 55649" d="M67.1,271.38c2.005-3.646,4.049-6.177,6.132-7.622,2.781-1.95,6.237-2.632,10.385-2.083a10.685,10.685,0,0,0-.925,2.6c-1.113,4.808-.5,8.458,1.844,10.873a17.752,17.752,0,0,0,9.051,5.178,17.5,17.5,0,0,0,2.681.3c2.393.017,3.739.023,4.027.006a15.3,15.3,0,0,0,3.456-1.224c2.681-1.109,4.414-3.346,5.206-6.775.809-3.5-.5-7.273-3.517-11.415a43.36,43.36,0,0,1,8.469-4.881,20.2,20.2,0,0,1,8.619-1.262c1.373.05,4.421.233,9.277.664l8.115-2.238L68.4,229.859c1.4-4.048,2.692-8.136,4.182-12.152-4.542,1.811-8.934,3.789-13.454,5.822a382.89,382.89,0,0,0-15.919,65.087c3.739-2.531,7.583-4.969,11.36-7.334l3.3-.709a22.305,22.305,0,0,0,5.2-3.268C64.255,276.264,65.435,274.242,67.1,271.38Zm38.617-20.49c-4.791,1.618-8.347,3.013-10.618,4.061a24.59,24.59,0,0,0-5.816-1.385q-9.089-.815-13.958.183A30.837,30.837,0,0,0,67,256.84c-1.213.642-3.711,2.16-7.5,4.675,1.612-7.694,3.916-15.216,6.043-22.777l40.174,12.152" transform="translate(18.059 92.755)" fill="#333290"/>
      <path id="Path_55650" data-name="Path 55650" d="M97,175.164q-6.971,1.438-14.063,3.112A377.459,377.459,0,0,0,53.344,245.9q5.965-2.833,11.875-5.439l1.429-1.124c1.29-.267,2.1-.427,2.415-.488,2.725-.553,5.112-2.708,6.929-6.585q2.891-6.572,5.29-7.606c2.864-1.422,7.068-1.185,12.28.537q2.551,3.739,5.317,7.444c2.36,3.285,3.407,5.285,3.1,6.076-.26.654-1.844,1.063-4.769,1.269a23.909,23.909,0,0,1-7.577-1.269c1.689,3.141,3.273,6.194,5.1,9.273,10.756-.615,17.016-1.5,18.605-3.3,1.174-.659,2.2-2.093,3.069-4.315a13.459,13.459,0,0,0,.687-2.137c.5-2.083-3.55-8.165-11.8-19.226-1.856-2.52-2.481-4.692-1.612-6.314.581-1.136,1.889-2.033,3.91-2.659a10.4,10.4,0,0,1,5.317-.421l29.462,15.066c4.818-.471,9.56-.864,14.3-1.141L90.039,187.266ZM75.915,216.323C79.033,209.378,82.1,202.41,85.7,195.7l16.19,8.279c-7.162.976-11.6,2.781-12.712,5.373-.543,1.208-.4,3.207.449,5.95l.615,1.767c-5.3-2.31-10.059-2.6-14.324-.743" transform="translate(22.296 74.633)" fill="#333290"/>
      <path id="Path_55651" data-name="Path 55651" d="M127.117,184.716a24.431,24.431,0,0,1,9.676.1c12.241,3.2,21.33,7.45,27.705,12.192.681.509,1.29.957,1.816,1.357,3.135.442,6.32.98,9.438,1.517l-61.537-47.33,8.319-10.53c-4.835.311-9.644.76-14.556,1.252a383.165,383.165,0,0,0-36.612,56.226c4.575-1.292,9.344-2.371,14.019-3.4a354.221,354.221,0,0,1,23.053-35.842l23.524,17.137-.482-.061c-12.453-2.382-21.414-.04-25.662,6.857a14.217,14.217,0,0,0-1.678,12.545,18.455,18.455,0,0,0,8.9,10.646c8.6,4.946,14.528,3.722,18.965-2.947q4.911-7.661-4.332-13.9a15.768,15.768,0,0,0-8.54-2.348c1.622-1.694,4.265-2.9,7.987-3.484" transform="translate(29.829 60.508)" fill="#333290"/>
      <path id="Path_55652" data-name="Path 55652" d="M136.784,139.564l-5.085-.638a1.36,1.36,0,0,0-1.828,1.158,5.77,5.77,0,0,0,.272,1.694,38.609,38.609,0,0,0,9.731,16.373,41.286,41.286,0,0,0,12.884,8.885c8.4,3.6,15.5,2.249,22.171-3.673a36.161,36.161,0,0,0,5.014-5.468,39.653,39.653,0,0,1,5.809-6.446c3.49-2.742,7.433-2.167,11.765,1.788A19.793,19.793,0,0,0,202.852,157l6.89,1.894L166.595,99.556c-1.446-1.988-4.277-3.318-8.564-3.916-4.237-.521-7.256-.066-9.044,1.208-3.939,2.808-6.808,7.09-7.911,13.305a36.784,36.784,0,0,0-.021,15.215c1.151,6.1,3.473,10.9,6.741,14.479a19.176,19.176,0,0,0,6.015,4.481c4.547,2.194,8.557,1.784,12.119-1.3a15.632,15.632,0,0,0,2-2.11,7.082,7.082,0,0,0,1.273-5.594,11.807,11.807,0,0,0-2.487-6.066A12.669,12.669,0,0,0,161,125.1a5.4,5.4,0,0,0-5.771.936,5.05,5.05,0,0,0-.753.837,19.335,19.335,0,0,1-1.607-5.59,29.885,29.885,0,0,1,.776-9.438c.858-3.949,2.143-6.592,3.772-7.865.265-.21.36-.3.277-.265L186.706,141.5l-2-.4a18.757,18.757,0,0,0-13.149,5.123,43.72,43.72,0,0,0-5.96,6.48,16.951,16.951,0,0,1-5.252,3.684q-3.7,1.87-6.048,1.568c-3.623-.471-7.212-2.472-10.713-6.055L142,150.27a30.218,30.218,0,0,1-5.212-10.706" transform="translate(55.344 40.66)" fill="#333290"/>
      <path id="Path_55653" data-name="Path 55653" d="M199.28,84.681c10.025-5.351,20.282-10.23,30.713-14.761q-6.455-2.925-13.15-5.733A380.249,380.249,0,0,0,150.2,103.126q6.978,1.554,13.749,3.268c8.75-6,17.668-11.8,26.941-16.971l5.089,8.89c-4.237-1.761-7.6-1.922-10-.548a9.98,9.98,0,0,0-4.642,6.519,9.167,9.167,0,0,0,1.867,7.954q6.5,8.75,12.462,4.936a6.64,6.64,0,0,0,2.9-4.16,6.73,6.73,0,0,0-.644-5.356,9.49,9.49,0,0,0-2.741-2.836c-.288-.161-.328-.848-.111-2.061-.726,1.18-.915,2.049-.581,2.62l-2.365-2.564c-1.214.7-1.219,1.628-.04,2.8a17.442,17.442,0,0,0,3.612,1.03c1.967.288,4.376,1.85,7.2,4.691a80.955,80.955,0,0,0,6.947,6.481,7.1,7.1,0,0,0,7.692.553c2.117-1.079,3.762-3.351,5.018-6.862a31.037,31.037,0,0,0,3.152-10.059,16.775,16.775,0,0,1,3.129,4.348,26.424,26.424,0,0,1,1.74,7.35c.1,3.888-.206,6.547-.976,8a17.454,17.454,0,0,1-7.41,7.938c-5.761,3.3-12.169,3.08-19.542-.366-5.156-2.3-8.933-4.376-11.182-6.3a132.215,132.215,0,0,1-14.385-13.537c-4.686-1.313-9.405-2.5-14.113-3.495l13.5,13.034c6.138,5.859,10.652,10.046,13.543,12.329,3.507,2.359,6.714,4.519,9.649,6.459a39.22,39.22,0,0,0,15.06,5.96c5.744,1.073,10.336.6,14-1.5,8.613-4.281,12.009-12.009,10.9-22.981a46.957,46.957,0,0,0-3.745-14.191A37.093,37.093,0,0,0,227.2,92.541a27.587,27.587,0,0,0-12.142-6.985c-.486,6.2-.709,10.4-.814,12.684a47.625,47.625,0,0,1-.913,4.93c-.537,2.5-.915,3.861-1.153,4.093-.276.139-.625,0-1.035-.426-.006,0-.078-.172-.227-.526L199.28,84.681" transform="translate(64.022 26.828)" fill="#333290"/>
      <path id="Path_55654" data-name="Path 55654" d="M296.851,49.039l-4.715-10c-5.975-4.952-10.828-7.915-14.384-9.405-11.5-4.863-22.217-5.81-31.489-3.595a19.825,19.825,0,0,0-9.106,4.625,35.156,35.156,0,0,0-8.009,8.923,43.94,43.94,0,0,0-3.855,10.873,14.2,14.2,0,0,0,.725,7.1,7.139,7.139,0,0,0,2.771,3.783c1.312.908,2.642,1.734,3.976,2.481l-16.206,5.484q6.447,3.423,12.64,6.94c2.647-.875,5.278-1.817,7.942-2.642l18.866,61.071q5.417,3.856,10.568,7.766L246.563,70.923c4.243-1.23,8.485-2.432,12.811-3.351-3.955-2.742-7.987-5.445-12.064-7.915l-6.331,1.795-3.257-4.082c-.376-.676,0-2.653,1.219-5.949a46.149,46.149,0,0,1,2.735-6.375l2.455-3.052c2.67-3.2,6.547-5.107,11.416-6.281a32.541,32.541,0,0,1,23.789,3.174c5.977,3.13,11.826,6.586,17.515,10.153" transform="translate(92.287 10.41)" fill="#333290"/>
      <path id="Path_55655" data-name="Path 55655" d="M316.757,51.1q-5.083-4.952-10.457-9.87a379.281,379.281,0,0,0-72.316,13.315q6.215,3.764,12.169,7.61c7.854-1.767,15.653-3.894,23.6-5.212q4.834,25.523,5.273,27.174c3.112,6.652,6.762,9.6,11.111,8.823a13.822,13.822,0,0,0,6.541-3.667,36.788,36.788,0,0,0,7.831-11,10.838,10.838,0,0,1,2.255,6.564,16.893,16.893,0,0,1-4.048,11.5,14.823,14.823,0,0,1-9.383,5.351c-4.3.781-7.86-.028-10.751-2.393-.593-.277-2.327-2.033-5.313-5.24-3.229-3.268-6.4-7.91-9.615-14.274a97.064,97.064,0,0,1-6.84-16.312l-7.97-2.664c2.281,6.652,3.81,11.15,4.641,13.482a145.171,145.171,0,0,0,12.047,24.576c4.776,6.58,8.325,10.978,10.957,13.365,4.271,3.949,8.746,5.749,13.615,5.351,4.885-.282,8.973-1.662,12.341-4.819,3.688-3.4,6.048-8,7.006-14.008a52.111,52.111,0,0,0,.61-12.562,34.844,34.844,0,0,0-4.8-14.916c-2.813-4.836-6.331-7.827-10.551-9.416a33.892,33.892,0,0,0-3.047,5.528c-1.927,5.445-4.807,8.967-8.635,11.277l-3.81-23.413q18.66-3.008,37.542-4.154" transform="translate(99.718 17.233)" fill="#333290"/>
      <path id="Path_55656" data-name="Path 55656" d="M363.585,51.67l-2.144-10.862c-4.608-6.17-8.6-10.186-11.676-12.557-9.964-7.6-20.1-10.906-29.583-11.177a21.142,21.142,0,0,0-9.926,2.321,34.914,34.914,0,0,0-9.916,6.647c-1.778,1.811-3.932,5.112-6.381,9.643a14.148,14.148,0,0,0-1.029,7.051,7.19,7.19,0,0,0,1.75,4.354q1.578,1.8,3.246,3.39l-17.031,1.3q5.4,4.91,10.534,9.854L299.771,61l3.335,63.83c2.88,3.334,5.678,6.757,8.38,10.125l-1.934-74.238c4.4-.05,8.807-.366,13.217-.161-3.158-3.683-6.409-7.1-9.749-10.568l-6.564.166L304.3,45.395c-.2-.748.648-2.57,2.626-5.461a46.817,46.817,0,0,1,4.2-5.495l3.112-2.343c3.362-2.415,7.578-3.512,12.563-3.346a32.34,32.34,0,0,1,22.261,8.862c5.018,4.619,9.876,9.123,14.523,14.058" transform="translate(119.71 7.136)" fill="#333290"/>
      <path id="Path_55657" data-name="Path 55657" d="M324.185,91.214c-5.035,4.608-7.595,9.183-7.955,13.714-.6,6.043.466,10.568,3.047,13.57,2.032,2.265,5.268,3.312,9.731,3.578,5.239.432,10.391-1.1,15.67-4.309a15.951,15.951,0,0,0,8.729-7.461,16.829,16.829,0,0,0,2.908-7.35,11.534,11.534,0,0,0-1.54-7.843,7.813,7.813,0,0,0-5.805-3.955c-2.026-.294-3.96.559-5.738,2.426a10.374,10.374,0,0,0-2.962,6.458,8.037,8.037,0,0,0,1.544,5.378,5.848,5.848,0,0,0,1.2,1.086l-.532.814c-.017.188-.326.354-.942.493a11.826,11.826,0,0,0-2.554,1.091,19.983,19.983,0,0,1-5.855,2.542c-4.452.559-6.623.958-6.552.991a1.931,1.931,0,0,1-2.127-1.75c-.259-2.576,2.41-6.613,8.353-11.178,8.53-6.5,14.557-11.837,17.381-15.542l2.847-3.634a16.335,16.335,0,0,0,3.484-8.247,18.87,18.87,0,0,0-.444-6.757l-.654-2.077c4.9.665,9.821,1.135,14.684,1.983-2.111-3.34-4.321-6.414-6.575-9.615l-3.234-2.648q-1.572-.2-1.94,1.717A20.423,20.423,0,0,0,357.1,44.028c-1.624-3.833-3.646-6.691-6.043-8.336q-3.1-1.961-9.615-3.323c-1.463-.105-4.244-.111-8.325.006-4.088.21-7.173.393-9.272.321a21.163,21.163,0,0,1-7.926-1.335c-1.728-.8-2.693-1.484-2.876-2.06a11.813,11.813,0,0,1-.957-4.154c0-1.324.951-3.207,2.907-5.633-2.3-.848-4.618-1.59-6.945-2.271-2.819,2.72-4.149,6.553-4.05,11.488a10.815,10.815,0,0,0,2.443,7.2c4.625,5.949,10.314,9.35,17.381,9.71,4.165-.111,7.006-.266,8.519-.26,8.33.349,12.419.493,12.251.388a40.861,40.861,0,0,1,5.317,1.689,4.788,4.788,0,0,1,.15,3.833c.25,1.058-.217,2.1-1.363,3.152l-3.655-3.13a368.325,368.325,0,0,0-45.912-1.23q5.034,5.276,9.792,10.568c4.216-.161,8.424.127,12.634.177A23.585,23.585,0,0,0,315.91,75.91a15.91,15.91,0,0,0,1.6,7.372c2.093,3.9,4.824,6.087,8.264,6.553Zm13.7-10.69c-.028.382-.8.853-2.282,1.412a10.151,10.151,0,0,1-4.387.676c-3.434-.255-5.073-2.3-4.908-6.608a8.3,8.3,0,0,1,3-6.176c.869-.831,1.042-1.628.493-2.4,2.836,4.47,5.561,9.028,8.175,13.532Zm8.729-12.357c-.366,3.805-1.845,6.187-4.391,7.14L336.215,63.5a6.959,6.959,0,0,1,1.2-.775,7.765,7.765,0,0,1,4.155-.831c3.738.282,5.422,2.382,5.039,6.276" transform="translate(127.447 7.207)" fill="#333290"/>
      <path id="Path_55658" data-name="Path 55658" d="M331.976,103.332a54.055,54.055,0,0,0-12.413-1.257c-9.128-.559-13.787-3.805-13.947-10.867-.05-2.841.4-4.847,1.363-6.01L301.85,79.21A96.672,96.672,0,0,0,299.662,91.6a25.84,25.84,0,0,0-.094,3.407c.576,13.476,6.568,19.608,17.946,20.139a140.748,140.748,0,0,1,18.222,1.628,7.8,7.8,0,0,1,5.495,4.393c.566,1.784,1.17,3.638,1.822,5.539q1.612,2.5,3.468,4.891l8.452-68.073c-3.236,2.947-6.375,5.838-9.455,8.857l-3.766,37.87c-1.923-3.783-5.212-6.087-9.777-6.918" transform="translate(127.578 26.55)" fill="#333290"/>
      <path id="Path_55659" data-name="Path 55659" d="M420.119,67.47l.25-11.022c-3.185-6.94-6.1-12.1-8.647-14.911-8.169-9.333-17.258-15.238-26.587-17.22a19.855,19.855,0,0,0-10.2-.017,35.67,35.67,0,0,0-11.161,4.481,48.388,48.388,0,0,0-8.3,7.9,14.134,14.134,0,0,0-2.52,6.663,7.2,7.2,0,0,0,.781,4.63q1.146,2.152,2.426,4.1c-5.6-1.052-11.288-1.545-16.933-2.332q4.239,5.9,8.2,11.765c2.775.3,5.522.775,8.264,1.285l-10.452,63.06q3.131,5.824,6,11.581l14.1-72.919c4.366.687,8.635,1.828,12.945,2.78-2.32-4.165-4.725-8.38-7.227-12.557l-6.476-1.163-1.085-5.1c-.04-.77,1.185-2.376,3.743-4.8a47.337,47.337,0,0,1,5.306-4.52l3.556-1.606a21.824,21.824,0,0,1,13.017-.5c8.347,1.767,14.982,6.757,19.88,13.448,3.938,5.489,7.57,11.36,11.115,16.955" transform="translate(144.567 9.881)" fill="#333290"/>
      <path id="Path_55660" data-name="Path 55660" d="M425.5,75.7q-2.41-6.672-5.079-13.432A383.238,383.238,0,0,0,357.1,44.758c2.542,4.088,5.024,8.009,7.349,12.252a367.765,367.765,0,0,1,39.005,10.607l-.576,1.75c-13.72.36-28.054,4.365-41.991,11.848q2.718,8.341,5.058,16.595c4.891,1.479,9.005,4.891,12.418,9.217,4.679,5.916,6.757,14.556,6.408,25.074q.832,5.668,1.5,11.273l26.166-72.715C416.849,72.187,421.148,74.025,425.5,75.7Zm-36.535,35.7A46.052,46.052,0,0,0,377,89.28c7.6-3.03,14.789-5.057,21.1-5.472L388.966,111.4" transform="translate(152.136 18.707)" fill="#333290"/>
      <path id="Path_55661" data-name="Path 55661" d="M425.127,52.331c-1.622-1.861-2.055-3.755-1.268-5.677.465-1.13,2.5-2.2,6.186-3.174a61.463,61.463,0,0,0-5.224-4.963c-1.334-.526-2.9-.028-4.675,1.507a13.889,13.889,0,0,0-3.926,5.605,15.111,15.111,0,0,0,.825,12.5c2.559,5.284,6.874,9.383,13.171,12.285q1.338.607,4.6,1.811a101.065,101.065,0,0,1,12.163,5.245,9.435,9.435,0,0,1,4.8,4.365c.9,1.512,1.052,2.7.488,3.567-.017-.532-.438-.858-1.28-.975-1.717-.155-3.107-.244-4.182-.271a367.725,367.725,0,0,0-50.265-21.834c1.828,4.337,3.556,8.691,5.14,13.177,7.932,3.035,15.792,6.231,23.469,9.859l-10.015,21.735,2.708,1.224-.271.576.122-.565q.5-2.883-.1-3.157c-.4-.177-1.224.46-2.464,1.922a17.973,17.973,0,0,0-.964,10.081c.682,3.224,2.216,5.556,4.753,6.863a10.34,10.34,0,0,0,6.232.809,37.529,37.529,0,0,0,12.44-4.4,11.35,11.35,0,0,1-1.418,5.229c-1.107,1.973-3.268,4.054-6.4,6.276a14.592,14.592,0,0,1-7.709,2.619,13.712,13.712,0,0,1-7.174-1.439,13.971,13.971,0,0,1-7.366-8.735,10.89,10.89,0,0,1-.322-2.011l-.78-5.489c-.7-4.459-.549-10.1.421-16.91a79.818,79.818,0,0,1,3.877-16.916l-5.168-6.608c-4.353,15.332-6.852,25.058-7.277,29.251-.532,5.478-.882,9.194-.97,11.189.072,7.91.326,13.775,1.168,17.221a19.311,19.311,0,0,0,20.777,15.27c4.934-.415,9.493-2.747,13.625-7.017a57.094,57.094,0,0,0,8.413-10.518,31.856,31.856,0,0,0,4.177-14.91c.381-6.314-.764-10.241-3.274-11.682-1.828-.953-4.984-.161-9.327,2.4s-6.762,3.722-7.406,3.39a1.84,1.84,0,0,1-.471-.393,3.2,3.2,0,0,1-.332-2.16c.166-.6.377-1.263.637-1.972L433.73,89.4a373.059,373.059,0,0,1,33.088,18.489c-.791-4.752-1.695-9.5-2.764-14.146l-4.443-2.559c3.047-5.306,3.612-10.474,1.534-15.564-1.738-4.553-5.51-8.275-10.944-11.632-3.352-1.451-6.674-2.93-10.109-4.16q-7.827-3.157-9.079-3.717l-1.954-.687-.377-.172a12.915,12.915,0,0,1-3.556-2.925" transform="translate(168.948 16.014)" fill="#333290"/>
      <path id="Path_55662" data-name="Path 55662" d="M468.446,132.123a13.508,13.508,0,0,0,2.941-8.508,61.776,61.776,0,0,0-1.208-8.652c1.772-.98,3.634-.78,5.672.444,1.507.942,2.083,3.855,1.618,8.657s-1.412,7.96-2.72,9.571l-28.736,34.557c-.061,4.425-.37,9.013-.7,13.465l48.609-56.85c3.213,2.825,6.52,5.556,9.655,8.468.128-4.774.011-9.421-.078-14.229q-2.791-3.173-2.365-4.9c-.187.216.095-.111.837-.985a8.681,8.681,0,0,0,1.911-4.232A65.6,65.6,0,0,0,503,98.867L492.374,112.7l-8.264,12.08.387-1.473c1.877-11.892,1.241-19.07-1.307-21.064a10.944,10.944,0,0,0-3.223-1.4c-5.677-1.906-10.907-1.6-15.643.9a55.288,55.288,0,0,0-.658-9.593,14.272,14.272,0,0,0-5.906-7.5c-4.862-3.229-9.9-6.17-14.988-9.045q1.587,7.145,2.925,14.163,10.06,6.065,6.053,3.329a9.767,9.767,0,0,1,3.922,5.207,38.687,38.687,0,0,1-.011,4.37c-2.083.233-3.639.465-4.686.692-5.826.975-9.981,3.645-12.64,7.882a15.571,15.571,0,0,0-1.351,2.83c-1.805,5.573-1.064,9.417,2.327,11.588,3.173,1.938,6.869,2.06,11.571-.084-.277,4.654.892,7.905,3.617,9.838a8.84,8.84,0,0,0,4.591,1.662,7.681,7.681,0,0,0,5.317-1.1l-.543.111a13.814,13.814,0,0,0,4.581-3.972" transform="translate(185.759 31.602)" fill="#333290"/>
      <path id="Path_55663" data-name="Path 55663" d="M489.011,160.09a23.884,23.884,0,0,1-2.026,9.383c-5.617,11.294-11.8,19.457-17.724,24.692q-.964.847-1.7,1.5l-3.385,8.879,58.978-50.477q4.469,5.011,8.535,10.347c.709-4.8,1.441-9.754,1.866-14.578a372.417,372.417,0,0,0-47.473-47.38q.315,7.3.421,14.423a378.861,378.861,0,0,1,30.342,29.91l-21.613,19.491.16-.465c4.892-11.688,4.3-20.81-1.422-26.526a14.952,14.952,0,0,0-11.976-4.183c-4.641.349-8.735,2.6-12.2,6.453q-9.729,10.892-1.063,19.215c4.452,4.121,9.083,3.867,14.45-1.334A16.177,16.177,0,0,0,487.3,151.5c1.258,2.005,1.845,4.885,1.711,8.586" transform="translate(197.757 43.686)" fill="#333290"/>
      <path id="Path_55664" data-name="Path 55664" d="M498.089,206.633c.21-2.376,2.026-5.373,5.566-9.129a51.3,51.3,0,0,1,9.262-7.626c11.176-7.025,22.005-9.495,32.108-6.354a25.734,25.734,0,0,1,14.6,11.189c1.645-4.326,3.329-8.769,4.725-13.15-2.853-4.935-7.76-8.38-14.761-9.931-12.811-2.659-25.02.477-37.143,8.525-12.043,8-19.348,17.215-22.295,26.958a12.02,12.02,0,0,0,1.185,9.6c1.374,2.394,3.777,3.806,7.229,4.321a15.53,15.53,0,0,0,10.057-1.767,11.409,11.409,0,0,0,5.079-5.312c1.292-2.7,1.246-4.692.172-6.049q-4.3-7.468-13.055-2.22a17.329,17.329,0,0,0-2.708,2.681,6.032,6.032,0,0,1-.016-1.734" transform="translate(209.235 72.696)" fill="#333290"/>
      <path id="Path_55665" data-name="Path 55665" d="M549.577,250.6a10.8,10.8,0,0,0-2.27-3.6,12.123,12.123,0,0,0-9.71-.638,10.92,10.92,0,0,0-5.9,5,8.076,8.076,0,0,0-.9,6.747c.947,2.819,3.2,4.719,6.764,5.794a19.153,19.153,0,0,0,10.679-.366c9.007-2.637,15.521-7.772,19.369-15.9,3.024-6.253,3.773-11.62,2.155-15.752l1.6-.615c3.76,9.754,7.195,19.663,10,29.739,2.5-4.006,5.156-8.159,7.444-12.291a380.77,380.77,0,0,0-32.863-74.327c-1.407,4.679-2.836,9.266-4.359,13.791,5.92,11.183,11.437,22.577,16.3,34.264l-2.359.981a80.454,80.454,0,0,0-35.155-22.173q-4,7.61-8.176,14.877c2.864,7.854,1.136,16.224-4.115,24.061a44.661,44.661,0,0,1-5.235,6.4c-.83.719-3.139,2.481-6.951,5.205l-3.833,6.154,55.245-21.275c1.683,3.838,1.207,7.97-1.4,12.22a17.385,17.385,0,0,1-6.2,6.436A7.694,7.694,0,0,0,549.577,250.6Zm-22.6-11.183a39.173,39.173,0,0,0,8.8-21.752c3.534,1.629,5.666,2.676,6.358,3.063a50.5,50.5,0,0,1,10.9,7.871l-26.061,10.818" transform="translate(214.415 74.335)" fill="#333290"/>
      <path id="Path_55666" data-name="Path 55666" d="M586.62,229.671a84.221,84.221,0,0,0-3.816-8.706q-3.165,6.215-6.415,12.192c.328.968.56,1.655.665,2.066a9.461,9.461,0,0,1-.648,6.762,10.6,10.6,0,0,1-4.923,5.129,21.514,21.514,0,0,1-3.541,1.5l-51.561,14.345c-2.924,3.461-5.689,6.779-8.807,10.092l74.782-18.771,2.947,12.745q4.22-5.749,8.374-11.78l-1-4.315a12.991,12.991,0,0,1,1.451-1.85,32.7,32.7,0,0,1,7.052-3.606l3.158-6.985q-11.458,3.19-17.968,5.639l-2.26.842c3.511-3.828,4.492-9.018,2.514-15.3" transform="translate(216.727 94.102)" fill="#333290"/>
      <path id="Path_55667" data-name="Path 55667" d="M578.294,283.621A19.253,19.253,0,0,0,590.3,277.33a13.3,13.3,0,0,0,3.766-11.892c-.742-4.094-3.213-7.389-7.511-9.72a18.8,18.8,0,0,0-13.2-1.944,19.209,19.209,0,0,0-11.328,7.122c-2.979,3.7-4.187,7.45-3.473,11.372a11.829,11.829,0,0,0,1.523,4.513c.941,1.351,2.769,2.775,5.5,4.309A19.653,19.653,0,0,0,578.294,283.621ZM508.875,301.65l10.734-1.085c13.532-10.087,22.134-17.886,25.336-21.553a173.738,173.738,0,0,0,13.829-18.283l-20.288,4.225c-8.414,14.374-15.127,22.916-19.663,27.2C515.511,295.431,512.21,298.588,508.875,301.65Zm71.645-27.672a11.612,11.612,0,0,1-4.126.155c-1.39-.277-3.063-1.357-5.018-3.2s-3.03-3.339-3.246-4.53c-.221-1.269.77-2.11,2.99-2.542,3.135-.6,5.729-.267,7.783,1.046,3.621,2.626,5.361,4.869,5.19,6.6-.15,1.3-1.34,2.121-3.573,2.476" transform="translate(217.27 107.874)" fill="#333290"/>
      <path id="Path_55668" data-name="Path 55668" d="M596.764,375.435l10.862-1.673c6.259-4.342,10.718-8.125,13.171-11.105,7.789-9.648,11.927-19.608,12.363-29.1a20.42,20.42,0,0,0-1.828-10.019c-2-4.581-4.021-7.96-6.231-10.187a50.024,50.024,0,0,0-9.388-6.8,14.115,14.115,0,0,0-6.99-1.34,7.187,7.187,0,0,0-4.437,1.561q-1.887,1.5-3.545,3.091c-.177-5.695-.194-11.382-.538-17.065-3.263,3.444-6.857,6.812-10.274,10.086l.2,8.359-63.913.526c-3.312,2.73-6.913,5.373-10.4,7.926l74.254,1.323c-.1,4.41-.116,8.818-.459,13.215q5.666-4.494,11.018-9.278l.132-6.562,4.858-1.945c.759-.166,2.537.76,5.334,2.859a46.245,46.245,0,0,1,5.3,4.442l2.2,3.213c2.255,3.456,3.085,7.721,2.792,12.7a33.187,33.187,0,0,1-9.782,21.873c-4.858,4.808-9.825,9.434-14.711,13.892" transform="translate(220.175 124.784)" fill="#333290"/>
      <path id="Path_55669" data-name="Path 55669" d="M582.368,391.044q6.366-3.639,12.784-7.561a390.3,390.3,0,0,0,7.66-72.87q-5.5,5.06-11.01,9.843a391.144,391.144,0,0,1-4.936,48.338l-10.379-1.757.515-.415,3.5-1.573a10.029,10.029,0,0,0,4.132-6.37c.377-1.307-.111-3-1.479-5.029a14.784,14.784,0,0,0-3.871-4l.776-.532c4.635-3.124,7.123-7.234,7.422-12.114.2-4.719-1.984-8.685-6.546-11.721a27.084,27.084,0,0,0-14.28-4.3c-6.53-.255-11.853,1.218-15.935,4.254A16.3,16.3,0,0,0,544,337.173c-.482,4.658,1.805,8.165,6.758,10.623,1.7.747,4.591.814,8.569.116,4.952-.976,7.616-3.307,7.976-6.884a7.245,7.245,0,0,0-2.172-5.889,9.816,9.816,0,0,0-6.547-2.93,14.493,14.493,0,0,0-2.691.033c1.367-2.16,3.722-3.151,7.05-2.935a11.721,11.721,0,0,1,7.671,3.284,8,8,0,0,1,2.72,6.93,9.444,9.444,0,0,1-4.193,7.261,23.439,23.439,0,0,1-5.428,2.376c-1.429.543-3.267.265-5.527-.8l2.2,7.052c4.769.044,7.732.448,8.884,1.263a3.031,3.031,0,0,1,1.618,3c-.2,1.39-1.225,2.659-3.057,3.778a7.677,7.677,0,0,1-5.212,1.246L523.02,358q-5.858,3.041-11.649,5.811l73.751,14.462c-.714,4.292-1.845,8.508-2.754,12.767" transform="translate(218.313 132.368)" fill="#333290"/>
      <path id="Path_55670" data-name="Path 55670" d="M563.622,400.067a17.883,17.883,0,0,0,13.139-.45,13.888,13.888,0,0,0,8.336-9c1.124-4.159.322-8.462-2.443-12.756a17.936,17.936,0,0,0-11.172-8.031A18.653,18.653,0,0,0,558.3,371.5c-4.248,2.15-6.867,5.068-7.9,8.9a12.916,12.916,0,0,0-.576,5.805,18.146,18.146,0,0,0,3,5.628A21.033,21.033,0,0,0,563.622,400.067ZM513.69,379a24.044,24.044,0,0,0,11.2,7.711,20.176,20.176,0,0,0,13.017.187c4.214-1.4,6.962-3.955,8.026-7.582,1-3.733,0-7.644-3.03-11.576a20.1,20.1,0,0,0-11.538-7.49,20.717,20.717,0,0,0-13.082.97c-4.115,1.7-6.608,4.176-7.505,7.555C509.846,372.083,510.738,375.418,513.69,379Zm54.763,12.745a10.432,10.432,0,0,1-3.678-1.639c-1.041-.825-1.955-2.447-2.752-4.835-.854-2.4-1.164-4.182-.842-5.346q.564-2.1,4.149-1.134c3.311.886,5.56,2.426,6.735,4.658,1.517,2.752,2.087,4.984,1.561,6.579Q572.687,393.036,568.453,391.746ZM527.818,378.8a9.086,9.086,0,0,1-5.672-4.189c-1.317-2.331-1.95-4.126-1.6-5.356q.632-2.359,6.381-.814c3.562.958,5.877,2.188,6.935,3.716,1.307,2.049,1.8,3.711,1.467,4.934q-1.146,3.648-7.517,1.707" transform="translate(217.917 153.115)" fill="#333290"/>
      <path id="Path_55671" data-name="Path 55671" d="M653.205-65.378H121.492V-192.99H653.205Zm0,0" transform="translate(53.088 796.443)" fill="none" stroke="#333290" stroke-width="6"/>
      <path id="Path_55672" data-name="Path 55672" d="M201.123,451.4a33.472,33.472,0,0,0-20.307-6.591,20.647,20.647,0,0,0-11.193,2.863l-2.83,1.911a42.846,42.846,0,0,0-3.938,4.536q-2.835,3.582-2.588,4.536l1.845,4.055h6.16l9.228,9.217H164.7v62.567l-9.394-8.713V471.926h-8.048l-9.144-9.217h16a40.364,40.364,0,0,1-2.83-3.053,5.714,5.714,0,0,1-1.351-3.772,11.345,11.345,0,0,1,1.357-5.86,46.5,46.5,0,0,1,6.148-7.782,32.748,32.748,0,0,1,8.862-5.39,19.483,19.483,0,0,1,8.613-1.794q12.307,0,26.211,8.4,4.3,2.644,11.443,9.716l3.074,8.879L201.123,451.4" transform="translate(58.855 185.488)" fill="#333290"/>
      <path id="Path_55673" data-name="Path 55673" d="M164.208,463.776l-9.228-9.217H229.8l9.722,9.217Zm55.224,46.809a28.5,28.5,0,0,1-13.9,4.061,29.314,29.314,0,0,1-10.33-2.033q-6.149-2.51-12.3-10.635a56.217,56.217,0,0,1-7.383-11.721,272.752,272.752,0,0,1-9.716-27.134l7.139,2.747q3.939,9.323,5.662,12.662a76.9,76.9,0,0,0,6.89,12.07q8.116,11.107,20.427,11.105,5.534,0,11.443-4.892,4.43-3.571,4.431-8.468a12.9,12.9,0,0,0-2.459-7.395q-2.833-4.054-6.524-4.06a7.072,7.072,0,0,0-1.6.242,10.783,10.783,0,0,1,1.544,5.755q0,9.954-11.237,9.954a10.978,10.978,0,0,1-8.769-3.712,13.572,13.572,0,0,1-3.213-9.217,12.449,12.449,0,0,1,4.858-10,17,17,0,0,1,11.134-4.016,25.9,25.9,0,0,1,5.9.835q12.421,2.75,17.342,17.8a25.2,25.2,0,0,1,1.351,8q0,11.947-10.7,18.039" transform="translate(66.051 193.618)" fill="#333290"/>
      <path id="Path_55674" data-name="Path 55674" d="M213.673,463.776l-9.228-9.217h74.82l9.716,9.217ZM268.9,510.584a28.506,28.506,0,0,1-13.9,4.061,29.309,29.309,0,0,1-10.33-2.033q-6.149-2.51-12.3-10.635a55.684,55.684,0,0,1-7.383-11.721,271.324,271.324,0,0,1-9.716-27.134l7.134,2.747q3.947,9.323,5.66,12.662a77.464,77.464,0,0,0,6.9,12.07q8.116,11.107,20.427,11.105,5.534,0,11.443-4.892,4.428-3.571,4.431-8.468a12.942,12.942,0,0,0-2.459-7.395q-2.833-4.054-6.531-4.06a7.042,7.042,0,0,0-1.6.242,10.822,10.822,0,0,1,1.546,5.755q0,9.954-11.237,9.954a10.978,10.978,0,0,1-8.769-3.712,13.572,13.572,0,0,1-3.213-9.217,12.449,12.449,0,0,1,4.858-10A16.992,16.992,0,0,1,255,465.9a25.9,25.9,0,0,1,5.9.835q12.421,2.75,17.336,17.8a25.052,25.052,0,0,1,1.357,8q0,11.947-10.7,18.039" transform="translate(87.133 193.618)" fill="#333290"/>
      <path id="Path_55675" data-name="Path 55675" d="M273.688,463.851l-.187-2.026q-.574-5.858-.571-15.891l5.357,4.159a25.139,25.139,0,0,0,1.584,6.531,10.083,10.083,0,0,0,1.34,1.54h4.143l9.127,9.217H281.969v65.049l-9.039-9.411V477.865a15.769,15.769,0,0,0-.492-3.217,8.989,8.989,0,0,0-3.5-5.18,9.914,9.914,0,0,0-6.087-2.087h-2.094l-9.095-8.508a88.684,88.684,0,0,1,8.857-.709q9.231,0,13.171,5.688" transform="translate(107.152 190.063)" fill="#333290"/>
      <path id="Path_55676" data-name="Path 55676" d="M336.612,463.776v63.808L327.4,517.325V489.531a8.717,8.717,0,0,0-2.9-3.817,6.863,6.863,0,0,0-4.254-1.91q-2.833,0-5.18,3.456-10.226,15.129-13.681,15.609a19.714,19.714,0,0,1-2.466.116q-3.954,0-5.672-1.075-3.705-1.08-10.357-13.648l7.134-6.823a16.656,16.656,0,0,0,1.6,6.341q1.969,3.356,3.074,3.352,1.355,0,4.681-4.315l4.918-6.6q-.738-6.953-4.309-9.709-1.844-1.563-8.857-1.8-6.281-.357-8.369-3.478c-.166-.238-.576-.837-1.229-1.8l-1.473-.835-8.5-8.037h69.158l9.228,9.217Zm-26.173,11.077,1.358-1.069q3.191-2.384,5.156-2.387,4.171,0,10.442,7.527V463.776h-21.99q4.909,3.888,5.034,11.077" transform="translate(115.721 193.676)" fill="#333290"/>
      <path id="Path_55677" data-name="Path 55677" d="M389.294,472.186q-.266-3.358-.532-6.72-.474-6.355-.471-20.282l7.012,6.585a6.3,6.3,0,0,0-.692,2.992q0,3.471,2.72,4.071a6.389,6.389,0,0,0,3.345-.532l9.522,9.222h-13.1v64.689l-10.28-10.28.709-32.885q0-3.831-3.024-9.266a24.467,24.467,0,0,0-6.23-7.831q-4.328-3.108-8.4-2.515-6.913,1.038-9.632,4.82h3.572a15.059,15.059,0,0,1,9.283,2.813,11.177,11.177,0,0,1,4.37,8.07q.5,3.35-2.708,9.211a45.489,45.489,0,0,1-5.9,8.37c-.98,1.119-2.382,2.67-4.182,4.664l-9.356-10.3a75.122,75.122,0,0,0,8.159-7.66q5.443-5.383,5.439-6.708c0-.8-.614-1.2-1.851-1.2q-.987,0-5.434,2.52t-6.657,2.514a6.2,6.2,0,0,1-2.964-.719q-5.426-3.482-5.428-9.123a16.567,16.567,0,0,1,2.708-8.464,17.931,17.931,0,0,1,6.276-6.541,20.581,20.581,0,0,1,10.347-2.52q16.492,0,23.385,13" transform="translate(147.636 189.746)" fill="#333290"/>
      <path id="Path_55678" data-name="Path 55678" d="M419.063,463.067a10.759,10.759,0,0,0-6.147,1.916,7.739,7.739,0,0,0-3.446,5.029,19.473,19.473,0,0,0-.25,3.473,81.636,81.636,0,0,0,1.473,14.252q2.716,14.606,2.708,17.358,0,10.777-11.193,17.6-5.294,3.116-8.492,3.114a4.367,4.367,0,0,1-4.309-3.1,2.887,2.887,0,0,1-.242-1.075c0-1.191.947-2.066,2.83-2.619l3.81-1.2A31.178,31.178,0,0,0,400.359,514q1.363-2.027,1.972-7.277.115-2.027-2.216-10.974-2.333-9.42-2.337-13.364a27.054,27.054,0,0,1,3.444-13.122q2.212-2.742,4.189-5.489H390.517l-9.478-9.217H415.99l9.842,9.217q-5.783-.706-6.769-.709" transform="translate(162.246 193.668)" fill="#333290"/>
      <path id="Path_55679" data-name="Path 55679" d="M421.731,463.851l-.189-2.026q-.564-5.858-.57-15.891l5.361,4.159a25.179,25.179,0,0,0,1.585,6.531,10.074,10.074,0,0,0,1.34,1.54H433.4l9.133,9.217H430.012v65.049l-9.04-9.411V477.865a15.219,15.219,0,0,0-.493-3.217,8.954,8.954,0,0,0-3.5-5.18,9.9,9.9,0,0,0-6.082-2.087H408.8l-9.1-8.508a88.888,88.888,0,0,1,8.862-.709q9.231,0,13.166,5.688" transform="translate(170.186 190.063)" fill="#333290"/>
      <path id="Path_55680" data-name="Path 55680" d="M484.658,463.776v63.808l-9.217-10.259V489.531a8.764,8.764,0,0,0-2.9-3.817,6.837,6.837,0,0,0-4.25-1.91q-2.842,0-5.178,3.456-10.235,15.129-13.686,15.609a19.73,19.73,0,0,1-2.466.116q-3.946,0-5.672-1.075-3.705-1.08-10.357-13.648l7.139-6.823a16.554,16.554,0,0,0,1.6,6.341c1.313,2.237,2.331,3.352,3.074,3.352q1.355,0,4.675-4.315l4.918-6.6q-.729-6.953-4.3-9.709-1.853-1.563-8.862-1.8-6.272-.357-8.363-3.478c-.166-.238-.576-.837-1.229-1.8L428.1,462.6l-8.492-8.037h69.16L498,463.776Zm-26.171,11.077,1.351-1.069q3.191-2.384,5.157-2.387,4.179,0,10.446,7.527V463.776H453.453q4.909,3.888,5.034,11.077" transform="translate(178.808 193.676)" fill="#333290"/>
      <path id="Path_55681" data-name="Path 55681" d="M256.311,592.25q-5.826,3.305-10.541,3.311a15.7,15.7,0,0,1-6.37-1.921q-5.16-2.468-5.163-7.378a9.8,9.8,0,0,1,2.748-6.68,14.5,14.5,0,0,1,6.474-4.227,11.877,11.877,0,0,1,3.838-.532q7.138,0,10.978,3.352a9.07,9.07,0,0,0,2.194-5.661q0-2.561-3.284-6.194a201.955,201.955,0,0,0-16.777-16.771q-5.817-5.117-5.816-9.714a7.939,7.939,0,0,1,4.42-7.368,7.356,7.356,0,0,1,3.651-1.069,6.436,6.436,0,0,1,5.245,2.35,8.33,8.33,0,0,1,1.927,5.445,13.42,13.42,0,0,1-.642,3.1,119.9,119.9,0,0,1,13.493,14.623q6.472,8.333,6.469,16.55,0,11.53-12.844,18.788" transform="translate(99.717 226.684)" fill="#333290"/>
      <path id="Path_55682" data-name="Path 55682" d="M276.319,542.063q.549.647,9.007,3.223,5.052,1.5,10.1,3a27.549,27.549,0,0,1,12.733,8.8,23.874,23.874,0,0,1,5.384,14.042q.549,7.825-8.889,15.226-8.559,6.647-16.573,6l2.2-11.763a9.659,9.659,0,0,0,.221-1.839,10.132,10.132,0,0,0-3.412-7.555,17.238,17.238,0,0,0-2.537-2.371,18.833,18.833,0,0,0-3.522-.865q-1.214-.106-3.08,2.476a11.418,11.418,0,0,0-1.984,6.143,3.575,3.575,0,0,0,.781,2.481q7.37-.638,7.372,6.171a7.544,7.544,0,0,1-1.546,4.891,5.712,5.712,0,0,1-4.735,2.232,9.66,9.66,0,0,1-8.159-4.17,14.366,14.366,0,0,1-2.754-8.769,20.132,20.132,0,0,1,4.581-12.832q4.9-6.306,11.887-6.31,6.438,0,11.287,5.4a17.3,17.3,0,0,1,4.858,11.8v1.069l2.316-1.6a7.185,7.185,0,0,0,2.647-5.234q.217-5.551-6.148-9.074l-15.691-5.876a44.736,44.736,0,0,1-11.527-6.409q-6.7-5.226-6.691-10.888a6.934,6.934,0,0,1,.217-1.711q1.761-6.723,6.928-6.725a6.374,6.374,0,0,1,4.78,1.984,6.6,6.6,0,0,1,1.928,4.769,5.058,5.058,0,0,1-1.984,4.288" transform="translate(112.613 226.527)" fill="#333290"/>
      <path id="Path_55683" data-name="Path 55683" d="M332.74,593.015q-6.938,0-13.764-5.34a40.9,40.9,0,0,1-11.338-14.517,96.372,96.372,0,0,1-6.171-17.519,70.391,70.391,0,0,1-1.65-11.317l5.971,2.565a64.971,64.971,0,0,0,4.088,14.279,78.146,78.146,0,0,0,8.176,12.994q5.083,6.621,14.589,6.625a14.534,14.534,0,0,0,10.114-3.634,12.215,12.215,0,0,0,4.031-9.516,11.19,11.19,0,0,0-1.218-5.028,16.852,16.852,0,0,1-14.279,7.189,12.9,12.9,0,0,1-8.525-3.152,12.043,12.043,0,0,1-4.431-7.637l-1.988-13.36a6.135,6.135,0,0,1-3.712-2.3,6.429,6.429,0,0,1-1.495-4.111,5.673,5.673,0,0,1,2.31-4.757,7.724,7.724,0,0,1,5.388-1.551q8.027.54,8.027,9.632v16.911c0,1.285.658,1.889,1.982,1.816a7.475,7.475,0,0,0,4.3-2.149c0-.072,1.048-1.285,3.141-3.65a24.925,24.925,0,0,0,4.908-9.139q12.679,8.865,12.678,22.106a26.971,26.971,0,0,1-5.394,16.877,18.737,18.737,0,0,1-15.742,7.682" transform="translate(127.688 227.314)" fill="#333290"/>
      <path id="Path_55684" data-name="Path 55684" d="M362.152,591.589q-9.446.857-15.941-4.812-5.824-5.026-5.821-11.344a9.514,9.514,0,0,1,.437-2.886q2.858-7.6,9.344-10.269-7.9-3.848-8.009-12.84-.108-6.955,5.605-12.192a23.142,23.142,0,0,1,16.151-6.1,17.967,17.967,0,0,1,12.2,4.282q5.383,4.486,5.39,10.48a13.266,13.266,0,0,1-2.365,7.117,19.131,19.131,0,0,1-5.445,5.721q9.337,4.388,9.67,15.725.323,7.487-6.818,12.407A29.335,29.335,0,0,1,362.152,591.589Zm5.717-22.217q-4.628-3.388-7.267-3.395a65.935,65.935,0,0,0-5.611,4.138q-3.084,2.858-3.08,5.826a5.26,5.26,0,0,0,.991,3.179q2.525,4.139,8.906,4.138,8.582,0,11.012-6.89Q372.487,572.763,367.87,569.372Zm-5.834-31.134a11.145,11.145,0,0,0-6.131,1.833q-3.29,2.053-3.284,5.075,0,3.554,3.5,6.579a15.835,15.835,0,0,0,7.013,3.347,50.954,50.954,0,0,0,5.582-3.451q3.282-2.593,3.4-5.29a6.888,6.888,0,0,0-3.18-5.826,11.646,11.646,0,0,0-6.9-2.266" transform="translate(144.932 226.579)" fill="#333290"/>
      <path id="Path_55685" data-name="Path 55685" d="M308.613,121.73s30.248,64.28-24.578,152.194-56.723,180.552,53.878,276.03c1.894-42.539,19.851-109.658,54.83-172.991s6.619-179.609-84.13-255.233" transform="translate(105.646 52.654)" fill="#eb302e"/>
      <path id="Path_55686" data-name="Path 55686" d="M301.68,267.856c-16.114,27.395-24.039,52.7-24.039,76.9a109.338,109.338,0,0,0,.947,14.406c2.842,21.364,12.445,42.788,28.558,64.031a422.16,422.16,0,0,1,36.512-98c5.34-10.258,8.026-23.3,8.026-37.919,0-25.579-8.253-55.96-24.864-84.634-3.661,19.413-11.182,41.491-25.14,65.215" transform="translate(118.299 86.712)" fill="#fbea2a"/>
    </g>
  </g>
</svg>
