<svg id="surface1" xmlns="http://www.w3.org/2000/svg" xmlns:xlink="http://www.w3.org/1999/xlink" width="400" height="400" viewBox="0 0 400 400">
  <defs>
    <clipPath id="clip-path">
      <path id="Path_55643" data-name="Path 55643" d="M0,0H400V400H0ZM0,0"/>
    </clipPath>
  </defs>
  <g id="Group_44050" data-name="Group 44050" clip-path="url(#clip-path)">
    <path id="Path_55642" data-name="Path 55642" d="M398.954-414.743c0,109.2-88.527,197.73-197.727,197.73S3.5-305.54,3.5-414.743,92.024-612.47,201.227-612.47,398.954-523.943,398.954-414.743Zm0,0" transform="translate(-1.227 614.743)" fill="none" stroke="#333290" stroke-width="6"/>
  </g>
  <path id="Path_55644" data-name="Path 55644" d="M39.3,351.465a166.911,166.911,0,0,0,5.805,22.621q1.745-2.5,3.527-4.9c-.444-1.345-.838-2.7-1.2-4.072l16.357-4.582a33.05,33.05,0,0,0,4.612-1.5c3.787-2.117,5.2-4.435,4.622-7.183-.434-1.8-3.071-3.711-7.869-6.186a16.566,16.566,0,0,0-9.719-1.282,8.543,8.543,0,0,0-4.915,2.2A4.528,4.528,0,0,0,49,350.905a3.85,3.85,0,0,0,2.1,2.911,5.641,5.641,0,0,0,3.931.389,4.316,4.316,0,0,0,2.818-1.862,4.043,4.043,0,0,0,.651-2.99A13.772,13.772,0,0,1,64.039,351c2.2,1.11,3.414,2.162,3.661,3.247.192.853-.182,1.4-1.138,1.643L46.32,361.009a182.038,182.038,0,0,1-3.78-20.032q-2.063,2.429-4.1,4.985l.045,1.2A8.042,8.042,0,0,0,31.7,352.56c-.888,2.155-.727,5.3.636,9.3.54,1.9.825,2.78.8,2.657.076.285.492,1.373,1.251,3.252a6.022,6.022,0,0,1,.182,2.271,2.691,2.691,0,0,1-.626,1.927,4.041,4.041,0,0,1-1.13.737,2.131,2.131,0,0,1-1.557-.406,6.188,6.188,0,0,0-1.789.8,1.213,1.213,0,0,0-.038.961,1.953,1.953,0,0,0,1.494,1.514,5.491,5.491,0,0,0,3.807.005,6.708,6.708,0,0,0,4.065-3.9,11.666,11.666,0,0,0,.57-8.245c-.121-.429-.361-1.12-.684-2.084-.772-2.4-1.335-4.342-1.658-5.81-.6-2.036-.184-3.341,1.251-3.89q.7-.144,1.022-.189" transform="translate(-10.394 -119.438)" fill="#333290"/>
  <path id="Path_55645" data-name="Path 55645" d="M85.234,350.431A24.769,24.769,0,0,0,86.278,356c.959,4.039.131,6.494-2.939,7.483a4.215,4.215,0,0,1-2.8.184L78.578,366.7a43.93,43.93,0,0,0,5.684-.656,11.664,11.664,0,0,0,1.5-.4c5.786-2,7.776-5.432,6.491-10.432a81.632,81.632,0,0,1-1.665-8.14,3.671,3.671,0,0,1,1.289-2.974q1.052-.711,2.157-1.5c.578-.681,1.11-1.391,1.643-2.135l-30.829,5.074c1.711,1.031,3.444,2.021,5.154,2.979l17.03-3.235a5.657,5.657,0,0,0-1.8,5.159" transform="translate(-22.963 -119.285)" fill="#333290"/>
  <path id="Path_55646" data-name="Path 55646" d="M39.323,340.048a24.9,24.9,0,0,0,1.087,4.185c1.211-1.713,2.452-3.393,3.764-5.046q-.1-.689-.144-.977a4.248,4.248,0,0,1,.706-2.992,4.726,4.726,0,0,1,2.563-1.965,9.763,9.763,0,0,1,1.7-.429l24.206-2.883q2.35-2.036,4.706-3.946L42.946,329.27c-.237-1.97-.308-3.956-.444-5.934-1.547,1.531-3.106,3.108-4.63,4.723l.2,2.006a5.732,5.732,0,0,1-.764.732,15.138,15.138,0,0,1-3.436,1.135l-1.958,2.927q5.382-.639,8.487-1.294l1.077-.22c-1.923,1.486-2.579,3.734-2.16,6.7" transform="translate(-11.302 -113.304)" fill="#333290"/>
  <path id="Path_55647" data-name="Path 55647" d="M55.029,298.182a6.955,6.955,0,0,1,2.566-.878,2.288,2.288,0,0,1,1.236.419,1.868,1.868,0,0,1,1.2,1.572,16.965,16.965,0,0,1-1.569,2.268l4.019,1.117c2.614-2.578,3.911-4.3,3.888-5.356a3.317,3.317,0,0,0-1.4-2.818,39.588,39.588,0,0,0-6.272-3.457,24.087,24.087,0,0,1-2.75-1.622c.215.01.283-.078.2-.262a1.3,1.3,0,0,1-.179-.663,1.725,1.725,0,0,1,1.07-1.411,2.1,2.1,0,0,1,1.05-.585,3.736,3.736,0,0,1,1.342-.237L75.276,287.3q1.976-1.71,3.938-3.325l-33.445-3.063c.1-1.867.406-3.714.621-5.568-1.776,1.244-3.6,2.525-5.346,3.855a172.175,172.175,0,0,0,.023,34.469c1.456-1.645,2.9-3.248,4.441-4.814l-.29-4.693.739-.613a10.829,10.829,0,0,0,1.531-4.014c.4-2.528,1.537-4.118,3.343-4.771a3.366,3.366,0,0,1,1.3-.209,9.5,9.5,0,0,1,1.408.565c.343.187.558.207.646.061a9.193,9.193,0,0,1-1.832.981,6.826,6.826,0,0,0-3.5,2.992,4.924,4.924,0,0,0,.807,6.865,5.2,5.2,0,0,0,4.153,1.521c2.157-.076,3.426-.931,3.8-2.538A5.257,5.257,0,0,0,58,302.931a3.185,3.185,0,0,0-1.15-2.205,3.425,3.425,0,0,0-2.5-1.062,2.627,2.627,0,0,0-.971.23C53.5,299.237,54.05,298.661,55.029,298.182Zm-1.461-12.295-.351-1.353a9.97,9.97,0,0,0-3.767,2.682,2.922,2.922,0,0,0-.568,3.045,19.294,19.294,0,0,0,2.251,2.947,3.491,3.491,0,0,0,.553-1.453q.019-.673-1.923-.74a6.546,6.546,0,0,0-4.642,1.668c.076-2.442.073-4.889.31-7.326l8.137.53" transform="translate(-14.232 -96.438)" fill="#333290"/>
  <path id="Path_55648" data-name="Path 55648" d="M41.107,228.223l-5,.063a32.12,32.12,0,0,0-6.636,4.173c-4.09,3.863-6.7,8.089-7.433,12.363a9.943,9.943,0,0,0,.159,4.645,14.35,14.35,0,0,0,2.2,5.006,22.44,22.44,0,0,0,3.772,3.661,6.345,6.345,0,0,0,3.06,1.044,3.306,3.306,0,0,0,2.109-.424c.633-.371,1.234-.76,1.809-1.168-.343,2.571-.666,5.146-.817,7.738,1.741-1.345,3.4-2.657,5.215-3.913l.479-3.779,28.866,3.8c1.733-1.012,3.373-2,5.157-2.917l-33.41-5.3,1.06-5.936q-2.766,1.684-5.548,3.494l-.507,2.952-2.288.573c-.348.03-1.108-.5-2.261-1.632a20.859,20.859,0,0,1-2.079-2.339l-.767-1.59a9.971,9.971,0,0,1-.5-5.929,15.452,15.452,0,0,1,5.858-9.247q3.777-2.782,7.5-5.336" transform="translate(-7.735 -79.937)" fill="#333290"/>
  <path id="Path_55649" data-name="Path 55649" d="M54.091,242.155a10.053,10.053,0,0,1,2.793-3.472,6.477,6.477,0,0,1,4.731-.949,4.867,4.867,0,0,0-.421,1.183c-.507,2.19-.227,3.853.84,4.953a8.086,8.086,0,0,0,4.123,2.359,7.971,7.971,0,0,0,1.221.139c1.09.008,1.7.01,1.834,0a6.968,6.968,0,0,0,1.574-.557,4.044,4.044,0,0,0,2.372-3.086c.368-1.592-.23-3.313-1.6-5.2a19.751,19.751,0,0,1,3.858-2.223,9.2,9.2,0,0,1,3.926-.575c.626.023,2.014.106,4.226.3l3.7-1.019-32.58-10.771c.636-1.844,1.226-3.706,1.9-5.535-2.069.825-4.07,1.726-6.128,2.652a174.41,174.41,0,0,0-7.251,29.648c1.7-1.153,3.454-2.263,5.175-3.341l1.5-.323a10.161,10.161,0,0,0,2.369-1.489A11.977,11.977,0,0,0,54.091,242.155Zm17.59-9.333c-2.182.737-3.8,1.373-4.837,1.85a11.2,11.2,0,0,0-2.649-.631,23.446,23.446,0,0,0-6.358.083,14.047,14.047,0,0,0-3.792,1.408c-.553.293-1.69.984-3.416,2.13.734-3.5,1.784-6.931,2.753-10.375l18.3,5.535" transform="translate(-15.3 -76.265)" fill="#333290"/>
  <path id="Path_55650" data-name="Path 55650" d="M73.23,175.164q-3.175.655-6.406,1.418a171.936,171.936,0,0,0-13.48,30.8q2.717-1.29,5.409-2.478l.651-.512c.588-.121.956-.194,1.1-.222,1.241-.252,2.329-1.234,3.156-3q1.317-2.994,2.41-3.465c1.3-.648,3.219-.54,5.593.245q1.162,1.7,2.422,3.391c1.075,1.5,1.552,2.407,1.41,2.768-.119.3-.84.484-2.172.578a10.89,10.89,0,0,1-3.451-.578c.77,1.431,1.491,2.821,2.324,4.224,4.9-.28,7.751-.684,8.475-1.5a3.7,3.7,0,0,0,1.4-1.965,6.131,6.131,0,0,0,.313-.973c.227-.949-1.617-3.719-5.374-8.758-.845-1.148-1.13-2.137-.734-2.876a2.809,2.809,0,0,1,1.781-1.211,4.737,4.737,0,0,1,2.422-.192L93.9,197.72c2.195-.214,4.355-.393,6.514-.52L70.059,180.677Zm-9.605,18.748c1.42-3.164,2.818-6.338,4.456-9.4l7.375,3.771c-3.262.444-5.286,1.267-5.79,2.447a4.191,4.191,0,0,0,.2,2.71l.28.8a7.929,7.929,0,0,0-6.525-.338" transform="translate(-18.889 -61.36)" fill="#333290"/>
  <path id="Path_55651" data-name="Path 55651" d="M96.762,161.472a11.129,11.129,0,0,1,4.408.048,36.651,36.651,0,0,1,12.62,5.553c.31.232.588.436.827.618,1.428.2,2.879.446,4.3.691l-28.03-21.559,3.789-4.8c-2.2.141-4.393.346-6.63.57a174.536,174.536,0,0,0-16.677,25.612c2.084-.588,4.256-1.08,6.386-1.547a161.353,161.353,0,0,1,10.5-16.326l10.716,7.806-.22-.028c-5.672-1.085-9.754-.018-11.689,3.124a6.476,6.476,0,0,0-.764,5.714,8.406,8.406,0,0,0,4.052,4.849c3.918,2.253,6.618,1.7,8.639-1.342q2.237-3.49-1.973-6.33a7.182,7.182,0,0,0-3.89-1.07,6.279,6.279,0,0,1,3.638-1.587" transform="translate(-25.272 -49.755)" fill="#333290"/>
  <path id="Path_55652" data-name="Path 55652" d="M133.02,115.533l-2.316-.291a.619.619,0,0,0-.833.528,2.628,2.628,0,0,0,.124.772A17.587,17.587,0,0,0,134.428,124a18.806,18.806,0,0,0,5.869,4.047,8.752,8.752,0,0,0,10.1-1.673,16.471,16.471,0,0,0,2.284-2.491,18.063,18.063,0,0,1,2.646-2.936c1.59-1.249,3.386-.987,5.359.814a9.016,9.016,0,0,0,2.43,1.714l3.138.863L146.6,97.309c-.659-.906-1.948-1.511-3.9-1.784-1.93-.237-3.305-.03-4.119.55a9.022,9.022,0,0,0-3.6,6.061,16.755,16.755,0,0,0-.01,6.93,13.176,13.176,0,0,0,3.071,6.6,8.735,8.735,0,0,0,2.74,2.041,4.668,4.668,0,0,0,5.52-.593,7.12,7.12,0,0,0,.913-.961,3.226,3.226,0,0,0,.58-2.548,5.378,5.378,0,0,0-1.133-2.763,5.771,5.771,0,0,0-2.606-1.894,2.462,2.462,0,0,0-2.629.426,2.3,2.3,0,0,0-.343.381,8.808,8.808,0,0,1-.732-2.546,13.613,13.613,0,0,1,.353-4.3,6.206,6.206,0,0,1,1.718-3.583c.121-.1.164-.136.126-.121l13.216,17.212-.913-.184a8.544,8.544,0,0,0-5.989,2.334,19.915,19.915,0,0,0-2.715,2.952,7.721,7.721,0,0,1-2.392,1.678,5.045,5.045,0,0,1-2.755.714,8.479,8.479,0,0,1-4.88-2.758l-.721-.74a13.765,13.765,0,0,1-2.374-4.876" transform="translate(-45.489 -33.428)" fill="#333290"/>
  <path id="Path_55653" data-name="Path 55653" d="M172.556,73.523c4.566-2.437,9.239-4.66,13.99-6.724q-2.94-1.332-5.99-2.611A173.206,173.206,0,0,0,150.2,81.924q3.179.708,6.263,1.489c3.986-2.732,8.048-5.374,12.272-7.731l2.318,4.049c-1.93-.8-3.464-.876-4.554-.25a4.546,4.546,0,0,0-2.115,2.97,4.175,4.175,0,0,0,.851,3.623q2.963,3.986,5.677,2.248a3.025,3.025,0,0,0,1.322-1.895,3.066,3.066,0,0,0-.293-2.44,4.323,4.323,0,0,0-1.249-1.292c-.131-.073-.149-.386-.05-.939-.331.537-.417.934-.265,1.193L169.3,81.783c-.553.318-.555.742-.018,1.277a7.945,7.945,0,0,0,1.645.469,6.635,6.635,0,0,1,3.28,2.137,36.875,36.875,0,0,0,3.164,2.952,3.233,3.233,0,0,0,3.5.252,5.253,5.253,0,0,0,2.286-3.126,14.138,14.138,0,0,0,1.436-4.582,7.641,7.641,0,0,1,1.425,1.981,12.036,12.036,0,0,1,.793,3.348,8.206,8.206,0,0,1-.444,3.646,7.951,7.951,0,0,1-3.375,3.616c-2.624,1.5-5.543,1.4-8.9-.167A22.293,22.293,0,0,1,169,90.715a60.225,60.225,0,0,1-6.553-6.166c-2.135-.6-4.284-1.138-6.429-1.592l6.151,5.937c2.8,2.669,4.852,4.576,6.169,5.616q2.4,1.612,4.4,2.942a17.865,17.865,0,0,0,6.86,2.715,9.115,9.115,0,0,0,6.376-.684c3.923-1.95,5.47-5.47,4.966-10.468a21.389,21.389,0,0,0-1.706-6.464,16.9,16.9,0,0,0-3.954-5.447,12.566,12.566,0,0,0-5.531-3.182c-.222,2.826-.323,4.738-.371,5.778a21.7,21.7,0,0,1-.416,2.246,7.08,7.08,0,0,1-.525,1.865c-.126.063-.285,0-.471-.194,0,0-.036-.078-.1-.24l-5.3-9.852" transform="translate(-52.602 -22.729)" fill="#333290"/>
  <path id="Path_55654" data-name="Path 55654" d="M253.133,35.9l-2.148-4.554a27.808,27.808,0,0,0-6.552-4.284c-5.24-2.215-10.12-2.647-14.343-1.637a9.031,9.031,0,0,0-4.148,2.107,16.014,16.014,0,0,0-3.648,4.065,20.015,20.015,0,0,0-1.756,4.953,6.468,6.468,0,0,0,.33,3.232A3.252,3.252,0,0,0,222.13,41.5c.6.414,1.2.79,1.811,1.13l-7.382,2.5q2.937,1.559,5.757,3.161c1.206-.4,2.4-.828,3.618-1.2l8.594,27.819q2.468,1.757,4.814,3.538l-9.116-32.577c1.933-.56,3.865-1.108,5.836-1.526-1.8-1.249-3.638-2.48-5.5-3.605l-2.884.817L226.2,39.694c-.171-.308,0-1.209.555-2.71A21.02,21.02,0,0,1,228,34.08l1.118-1.39a9.32,9.32,0,0,1,5.2-2.861,14.823,14.823,0,0,1,10.836,1.446c2.722,1.426,5.387,3,7.978,4.625" transform="translate(-75.853 -8.82)" fill="#333290"/>
  <path id="Path_55655" data-name="Path 55655" d="M271.688,45.726q-2.316-2.256-4.763-4.5A172.766,172.766,0,0,0,233.984,47.3q2.831,1.714,5.543,3.467c3.578-.8,7.13-1.774,10.751-2.374q2.2,11.626,2.4,12.378c1.418,3.03,3.08,4.375,5.061,4.019a6.3,6.3,0,0,0,2.98-1.67,16.757,16.757,0,0,0,3.567-5.011,4.937,4.937,0,0,1,1.027,2.99,7.7,7.7,0,0,1-1.844,5.24,6.752,6.752,0,0,1-4.274,2.437,5.73,5.73,0,0,1-4.9-1.09,17.915,17.915,0,0,1-2.42-2.387,25.636,25.636,0,0,1-4.38-6.5,44.215,44.215,0,0,1-3.116-7.43l-3.631-1.214c1.039,3.03,1.736,5.079,2.114,6.141a66.125,66.125,0,0,0,5.488,11.195,43.626,43.626,0,0,0,4.991,6.088,7.962,7.962,0,0,0,6.2,2.437,8.524,8.524,0,0,0,5.621-2.2,10.6,10.6,0,0,0,3.191-6.381,23.737,23.737,0,0,0,.278-5.722,15.872,15.872,0,0,0-2.188-6.794,9.3,9.3,0,0,0-4.806-4.289,15.437,15.437,0,0,0-1.388,2.518,9.218,9.218,0,0,1-3.934,5.137l-1.736-10.665q8.5-1.37,17.1-1.892" transform="translate(-81.953 -14.6)" fill="#333290"/>
  <path id="Path_55656" data-name="Path 55656" d="M318.561,32.833l-.977-4.948a29.691,29.691,0,0,0-5.318-5.72,23.152,23.152,0,0,0-13.475-5.091,9.63,9.63,0,0,0-4.521,1.057,15.9,15.9,0,0,0-4.517,3.028,21.021,21.021,0,0,0-2.906,4.393,6.445,6.445,0,0,0-.469,3.212,3.275,3.275,0,0,0,.8,1.983q.719.821,1.478,1.544l-7.758.59q2.46,2.237,4.8,4.488l3.8-.285,1.519,29.075c1.312,1.519,2.586,3.078,3.817,4.612l-.881-33.816c2.006-.023,4.012-.167,6.02-.073-1.438-1.678-2.919-3.232-4.441-4.814l-2.99.076-.982-2.17c-.09-.341.3-1.171,1.2-2.488a21.327,21.327,0,0,1,1.912-2.5l1.418-1.067a9.039,9.039,0,0,1,5.723-1.524,14.731,14.731,0,0,1,10.14,4.037c2.286,2.1,4.5,4.155,6.615,6.4" transform="translate(-98.384 -6.046)" fill="#333290"/>
  <path id="Path_55657" data-name="Path 55657" d="M310.545,50.937c-2.294,2.1-3.459,4.183-3.623,6.247-.275,2.753.212,4.814,1.388,6.181.926,1.032,2.4,1.509,4.433,1.63a11.739,11.739,0,0,0,7.138-1.963,7.266,7.266,0,0,0,3.976-3.4,7.666,7.666,0,0,0,1.325-3.348,5.254,5.254,0,0,0-.7-3.573,3.559,3.559,0,0,0-2.644-1.8,2.99,2.99,0,0,0-2.614,1.105,4.725,4.725,0,0,0-1.349,2.942,3.661,3.661,0,0,0,.7,2.45,2.664,2.664,0,0,0,.545.494l-.242.371c-.008.086-.149.161-.429.225a5.388,5.388,0,0,0-1.163.5,9.1,9.1,0,0,1-2.667,1.158c-2.028.255-3.017.436-2.985.452a.88.88,0,0,1-.969-.8c-.118-1.173,1.1-3.012,3.8-5.091,3.886-2.962,6.631-5.392,7.917-7.08l1.3-1.655a7.441,7.441,0,0,0,1.587-3.757,8.6,8.6,0,0,0-.2-3.078l-.3-.946c2.23.3,4.473.517,6.689.9-.962-1.521-1.968-2.922-2.995-4.38l-1.473-1.206q-.716-.091-.884.782a9.3,9.3,0,0,0-.57-4.857,8.512,8.512,0,0,0-2.753-3.8,13.814,13.814,0,0,0-4.38-1.514c-.667-.048-1.933-.051-3.792,0-1.862.1-3.268.179-4.223.146a9.64,9.64,0,0,1-3.611-.608c-.787-.363-1.227-.676-1.31-.939a5.381,5.381,0,0,1-.436-1.892,4.823,4.823,0,0,1,1.324-2.566c-1.05-.386-2.1-.724-3.164-1.034a6.727,6.727,0,0,0-1.845,5.233,4.927,4.927,0,0,0,1.113,3.28,10.429,10.429,0,0,0,7.917,4.423c1.9-.05,3.191-.121,3.881-.119,3.795.159,5.657.225,5.581.177a18.61,18.61,0,0,1,2.422.77,2.181,2.181,0,0,1,.068,1.746,1.486,1.486,0,0,1-.621,1.436l-1.665-1.426a167.776,167.776,0,0,0-20.913-.56q2.293,2.4,4.461,4.814c1.92-.073,3.837.058,5.755.081a10.743,10.743,0,0,0-2.573,6.87,7.247,7.247,0,0,0,.727,3.358,5.058,5.058,0,0,0,3.764,2.985Zm6.239-4.869c-.013.174-.364.389-1.039.643a4.624,4.624,0,0,1-2,.308c-1.564-.116-2.311-1.05-2.235-3.01a3.783,3.783,0,0,1,1.365-2.813c.4-.378.475-.742.225-1.095,1.292,2.036,2.533,4.113,3.724,6.164Zm3.976-5.629c-.167,1.733-.84,2.818-2,3.252l-2.735-5.379a3.17,3.17,0,0,1,.548-.353,3.537,3.537,0,0,1,1.892-.378c1.7.129,2.47,1.085,2.3,2.859" transform="translate(-104.789 -6.106)" fill="#333290"/>
  <path id="Path_55658" data-name="Path 55658" d="M314.32,81.656a24.622,24.622,0,0,0-5.654-.573c-4.158-.255-6.28-1.733-6.353-4.95a4.238,4.238,0,0,1,.621-2.737L300.6,70.669a44.028,44.028,0,0,0-1,5.644,11.769,11.769,0,0,0-.043,1.552c.262,6.138,2.992,8.931,8.174,9.174a64.112,64.112,0,0,1,8.3.742,3.552,3.552,0,0,1,2.5,2c.258.813.533,1.657.83,2.523q.734,1.139,1.58,2.228l3.85-31.008c-1.474,1.342-2.9,2.659-4.307,4.034l-1.716,17.25a5.866,5.866,0,0,0-4.453-3.151" transform="translate(-104.956 -22.494)" fill="#333290"/>
  <path id="Path_55659" data-name="Path 55659" d="M376.078,43.606l.114-5.021a28.925,28.925,0,0,0-3.939-6.792c-3.721-4.251-7.861-6.941-12.11-7.844a9.044,9.044,0,0,0-4.645-.008,16.248,16.248,0,0,0-5.084,2.041,22.041,22.041,0,0,0-3.78,3.6,6.438,6.438,0,0,0-1.148,3.035,3.279,3.279,0,0,0,.356,2.109q.522.98,1.105,1.87c-2.551-.479-5.142-.7-7.713-1.062q1.931,2.687,3.737,5.359c1.264.139,2.515.353,3.764.585L341.975,70.2q1.426,2.653,2.732,5.275l6.421-33.215c1.989.313,3.933.833,5.9,1.267-1.057-1.9-2.152-3.817-3.292-5.72l-2.95-.53-.494-2.321c-.018-.351.54-1.082,1.705-2.185a21.566,21.566,0,0,1,2.417-2.059l1.62-.732a9.941,9.941,0,0,1,5.929-.227,15.063,15.063,0,0,1,9.055,6.126c1.794,2.5,3.448,5.175,5.063,7.723" transform="translate(-118.82 -8.372)" fill="#333290"/>
  <path id="Path_55660" data-name="Path 55660" d="M388.259,58.851q-1.1-3.039-2.314-6.118A174.567,174.567,0,0,0,357.1,44.758c1.158,1.862,2.288,3.648,3.348,5.581a167.523,167.523,0,0,1,17.767,4.832l-.262.8a43.052,43.052,0,0,0-19.127,5.4q1.238,3.8,2.3,7.559a11.731,11.731,0,0,1,5.657,4.2c2.131,2.695,3.078,6.63,2.919,11.421q.379,2.582.684,5.135l11.919-33.122C384.317,57.252,386.276,58.089,388.259,58.851ZM371.617,75.115a20.977,20.977,0,0,0-5.452-10.077,32.73,32.73,0,0,1,9.613-2.493l-4.161,12.57" transform="translate(-125.1 -15.849)" fill="#333290"/>
  <path id="Path_55661" data-name="Path 55661" d="M409.566,44.7a2.368,2.368,0,0,1-.577-2.586c.212-.515,1.14-1,2.818-1.446a27.989,27.989,0,0,0-2.379-2.261c-.608-.24-1.322-.013-2.13.686a6.327,6.327,0,0,0-1.788,2.553,6.883,6.883,0,0,0,.376,5.694,11.822,11.822,0,0,0,6,5.6q.609.276,2.1.825a46.038,46.038,0,0,1,5.541,2.389,4.3,4.3,0,0,1,2.188,1.988c.409.689.479,1.231.222,1.625-.008-.242-.2-.391-.583-.444-.782-.071-1.415-.111-1.9-.124a167.5,167.5,0,0,0-22.9-9.946c.833,1.976,1.62,3.959,2.341,6,3.613,1.383,7.193,2.838,10.69,4.491l-4.562,9.9,1.234.558-.123.262.056-.257q.227-1.313-.043-1.438c-.181-.081-.557.209-1.123.875a8.187,8.187,0,0,0-.439,4.592,4.26,4.26,0,0,0,2.165,3.126,4.71,4.71,0,0,0,2.839.368,17.1,17.1,0,0,0,5.666-2.006,5.17,5.17,0,0,1-.646,2.382,9.763,9.763,0,0,1-2.917,2.859,6.647,6.647,0,0,1-3.512,1.193,6.246,6.246,0,0,1-3.268-.656,6.364,6.364,0,0,1-3.355-3.979,4.959,4.959,0,0,1-.147-.916l-.355-2.5a26.757,26.757,0,0,1,.192-7.7,36.358,36.358,0,0,1,1.766-7.705l-2.354-3.01c-1.983,6.984-3.121,11.414-3.315,13.324-.242,2.5-.4,4.188-.442,5.1a40.813,40.813,0,0,0,.532,7.844,8.8,8.8,0,0,0,9.464,6.956,9.7,9.7,0,0,0,6.206-3.2,26.009,26.009,0,0,0,3.832-4.791,14.511,14.511,0,0,0,1.9-6.792c.174-2.876-.348-4.665-1.491-5.321-.833-.434-2.27-.073-4.249,1.1s-3.08,1.7-3.374,1.544a.838.838,0,0,1-.214-.179,1.46,1.46,0,0,1-.151-.984c.076-.275.172-.575.29-.9l3.84-7.8a169.926,169.926,0,0,1,15.072,8.422c-.36-2.165-.772-4.327-1.259-6.444L425.274,62.4a7.739,7.739,0,0,0,.7-7.09c-.792-2.074-2.51-3.769-4.985-5.3-1.527-.661-3.04-1.335-4.6-1.895q-3.565-1.438-4.136-1.693l-.89-.313-.172-.078a5.883,5.883,0,0,1-1.62-1.332" transform="translate(-138.915 -13.567)" fill="#333290"/>
  <path id="Path_55662" data-name="Path 55662" d="M450.8,101.352a6.153,6.153,0,0,0,1.34-3.875,28.136,28.136,0,0,0-.55-3.941,2.438,2.438,0,0,1,2.584.2c.687.429.949,1.756.737,3.943s-.643,3.626-1.239,4.36l-13.09,15.741c-.028,2.016-.169,4.105-.32,6.133l22.142-25.9c1.464,1.287,2.97,2.531,4.4,3.857.058-2.175.005-4.291-.036-6.482q-1.271-1.446-1.077-2.23c-.085.1.043-.05.381-.449a3.954,3.954,0,0,0,.871-1.928,29.88,29.88,0,0,0-.4-4.584L461.7,92.5l-3.764,5.5.176-.671c.855-5.417.565-8.687-.6-9.6a4.985,4.985,0,0,0-1.468-.636,8.738,8.738,0,0,0-7.125.411,25.186,25.186,0,0,0-.3-4.37,6.5,6.5,0,0,0-2.69-3.416c-2.215-1.471-4.511-2.811-6.827-4.12q.723,3.255,1.332,6.451,4.583,2.763,2.757,1.516a4.449,4.449,0,0,1,1.787,2.372,17.626,17.626,0,0,1-.005,1.991c-.949.106-1.657.212-2.135.315a7.944,7.944,0,0,0-5.757,3.59,7.093,7.093,0,0,0-.616,1.289c-.822,2.538-.484,4.289,1.06,5.278,1.445.883,3.129.938,5.271-.038-.126,2.12.406,3.6,1.648,4.481a4.027,4.027,0,0,0,2.091.757,3.5,3.5,0,0,0,2.422-.5l-.247.05a6.293,6.293,0,0,0,2.087-1.809" transform="translate(-152.751 -26.774)" fill="#333290"/>
  <path id="Path_55663" data-name="Path 55663" d="M475.489,128.709a10.88,10.88,0,0,1-.923,4.274,36.926,36.926,0,0,1-8.074,11.248q-.439.386-.774.683l-1.542,4.045,26.865-22.993q2.036,2.283,3.888,4.713c.323-2.187.656-4.443.85-6.64a169.641,169.641,0,0,0-21.624-21.582q.143,3.323.192,6.57a172.577,172.577,0,0,1,13.821,13.624l-9.845,8.878.073-.212c2.228-5.324,1.961-9.479-.648-12.083a6.811,6.811,0,0,0-5.455-1.905,8.232,8.232,0,0,0-5.558,2.939q-4.431,4.961-.484,8.752c2.028,1.877,4.138,1.761,6.582-.608a7.369,7.369,0,0,0,1.877-3.616,6.915,6.915,0,0,1,.78,3.911" transform="translate(-162.608 -35.876)" fill="#333290"/>
  <path id="Path_55664" data-name="Path 55664" d="M493.495,187.071c.1-1.082.923-2.447,2.535-4.158a23.368,23.368,0,0,1,4.219-3.474c5.091-3.2,10.024-4.325,14.626-2.894a11.722,11.722,0,0,1,6.648,5.1c.749-1.971,1.517-3.994,2.152-5.99a9.783,9.783,0,0,0-6.724-4.524c-5.836-1.211-11.4.217-16.919,3.883-5.486,3.646-8.813,7.842-10.155,12.28a5.475,5.475,0,0,0,.54,4.372,4.23,4.23,0,0,0,3.293,1.968,7.074,7.074,0,0,0,4.581-.8,5.2,5.2,0,0,0,2.314-2.419c.588-1.231.568-2.137.078-2.755q-1.96-3.4-5.947-1.011a7.893,7.893,0,0,0-1.234,1.221,2.748,2.748,0,0,1-.007-.79" transform="translate(-171.239 -59.816)" fill="#333290"/>
  <path id="Path_55665" data-name="Path 55665" d="M523.7,209.105a4.92,4.92,0,0,0-1.034-1.64,5.522,5.522,0,0,0-4.423-.291,4.974,4.974,0,0,0-2.69,2.279,3.679,3.679,0,0,0-.411,3.073,4.216,4.216,0,0,0,3.081,2.639,8.725,8.725,0,0,0,4.864-.167,13.322,13.322,0,0,0,8.823-7.244c1.378-2.848,1.719-5.293.982-7.175l.727-.28c1.713,4.443,3.277,8.957,4.554,13.546,1.137-1.825,2.349-3.716,3.391-5.6a173.443,173.443,0,0,0-14.969-33.856c-.641,2.131-1.292,4.221-1.985,6.282,2.7,5.094,5.21,10.284,7.423,15.607l-1.075.447a36.648,36.648,0,0,0-16.014-10.1q-1.82,3.467-3.724,6.777c1.3,3.578.517,7.39-1.874,10.96a20.342,20.342,0,0,1-2.385,2.917c-.378.327-1.43,1.13-3.166,2.371l-1.746,2.8,25.165-9.691a5.794,5.794,0,0,1-.638,5.566,7.919,7.919,0,0,1-2.826,2.932A3.5,3.5,0,0,0,523.7,209.105Zm-10.3-5.094a17.843,17.843,0,0,0,4.009-9.908c1.61.742,2.581,1.219,2.9,1.4a23,23,0,0,1,4.966,3.585L513.4,204.011" transform="translate(-175.627 -61.074)" fill="#333290"/>
  <path id="Path_55666" data-name="Path 55666" d="M543.58,224.931a38.354,38.354,0,0,0-1.738-3.966q-1.442,2.831-2.922,5.553c.149.441.255.754.3.941a4.31,4.31,0,0,1-.3,3.08,4.83,4.83,0,0,1-2.243,2.336,9.8,9.8,0,0,1-1.613.684l-23.487,6.534c-1.332,1.577-2.591,3.088-4.012,4.6l34.064-8.55,1.342,5.805q1.922-2.619,3.815-5.366l-.457-1.965a5.916,5.916,0,0,1,.661-.843,14.9,14.9,0,0,1,3.212-1.643l1.438-3.182q-5.219,1.453-8.185,2.569l-1.029.384c1.6-1.744,2.046-4.108,1.145-6.969" transform="translate(-177.586 -77.425)" fill="#333290"/>
  <path id="Path_55667" data-name="Path 55667" d="M540.5,267.125a8.77,8.77,0,0,0,5.47-2.866,6.059,6.059,0,0,0,1.715-5.417,6.208,6.208,0,0,0-3.421-4.428,8.564,8.564,0,0,0-6.012-.886,8.75,8.75,0,0,0-5.16,3.244,6.258,6.258,0,0,0-1.582,5.18,5.388,5.388,0,0,0,.694,2.056,7.6,7.6,0,0,0,2.505,1.963A8.952,8.952,0,0,0,540.5,267.125Zm-31.621,8.213,4.889-.494a86.512,86.512,0,0,0,11.541-9.818,79.13,79.13,0,0,0,6.3-8.328l-9.241,1.925c-3.833,6.547-6.89,10.438-8.957,12.391C511.9,272.5,510.394,273.943,508.875,275.338Zm32.635-12.6a5.289,5.289,0,0,1-1.88.07,5.232,5.232,0,0,1-2.286-1.458,4.461,4.461,0,0,1-1.478-2.064c-.1-.578.351-.961,1.362-1.158a4.73,4.73,0,0,1,3.545.477c1.65,1.2,2.442,2.218,2.364,3.005-.068.593-.61.966-1.628,1.128" transform="translate(-178.046 -88.768)" fill="#333290"/>
  <path id="Path_55668" data-name="Path 55668" d="M552.693,330.442l4.948-.762a31.164,31.164,0,0,0,6-5.059c3.548-4.395,5.433-8.931,5.632-13.256a9.3,9.3,0,0,0-.833-4.564,15.333,15.333,0,0,0-2.838-4.64,22.787,22.787,0,0,0-4.276-3.1,6.43,6.43,0,0,0-3.184-.61,3.274,3.274,0,0,0-2.021.711q-.859.681-1.615,1.408c-.081-2.594-.089-5.185-.245-7.773-1.486,1.569-3.124,3.1-4.68,4.594l.093,3.808-29.113.24c-1.509,1.243-3.149,2.447-4.736,3.611l33.823.6c-.045,2.009-.053,4.017-.209,6.02q2.581-2.047,5.019-4.226l.06-2.989,2.213-.886c.346-.076,1.155.346,2.43,1.3a21.064,21.064,0,0,1,2.414,2.024l1,1.464a9.336,9.336,0,0,1,1.272,5.787,15.117,15.117,0,0,1-4.456,9.964c-2.213,2.19-4.475,4.3-6.7,6.328" transform="translate(-180.507 -102.554)" fill="#333290"/>
  <path id="Path_55669" data-name="Path 55669" d="M543.711,347.25q2.9-1.658,5.823-3.444a177.785,177.785,0,0,0,3.489-33.193q-2.505,2.3-5.015,4.484a178.167,178.167,0,0,1-2.248,22.018l-4.728-.8.234-.189,1.595-.716a4.568,4.568,0,0,0,1.882-2.9,2.889,2.889,0,0,0-.674-2.291,6.733,6.733,0,0,0-1.763-1.824l.353-.242a7.025,7.025,0,0,0,3.381-5.518,5.907,5.907,0,0,0-2.982-5.339,12.337,12.337,0,0,0-6.5-1.958,11.115,11.115,0,0,0-7.259,1.938,7.424,7.424,0,0,0-3.063,5.437c-.22,2.122.822,3.719,3.078,4.839a7.4,7.4,0,0,0,3.9.053c2.255-.444,3.469-1.506,3.633-3.136a3.3,3.3,0,0,0-.99-2.682,4.471,4.471,0,0,0-2.982-1.334,6.6,6.6,0,0,0-1.226.015,3.237,3.237,0,0,1,3.211-1.337,5.339,5.339,0,0,1,3.494,1.5,3.646,3.646,0,0,1,1.239,3.156,4.3,4.3,0,0,1-1.91,3.308,10.678,10.678,0,0,1-2.472,1.083,3.285,3.285,0,0,1-2.518-.364l1,3.212c2.172.02,3.522.2,4.047.575a1.381,1.381,0,0,1,.737,1.365,2.579,2.579,0,0,1-1.393,1.721,3.5,3.5,0,0,1-2.374.568L516.677,332.2q-2.668,1.385-5.306,2.647l33.594,6.587c-.325,1.955-.84,3.875-1.254,5.816" transform="translate(-178.93 -108.796)" fill="#333290"/>
  <path id="Path_55670" data-name="Path 55670" d="M534.656,378.045a8.146,8.146,0,0,0,5.985-.2,6.326,6.326,0,0,0,3.8-4.1,7.058,7.058,0,0,0-1.113-5.81,8.17,8.17,0,0,0-5.089-3.658,8.5,8.5,0,0,0-6,.76,6.386,6.386,0,0,0-3.6,4.054,5.884,5.884,0,0,0-.262,2.644,8.266,8.266,0,0,0,1.365,2.564A9.58,9.58,0,0,0,534.656,378.045Zm-22.745-9.6a10.951,10.951,0,0,0,5.1,3.512,9.19,9.19,0,0,0,5.929.085,5.205,5.205,0,0,0,3.656-3.454,5.953,5.953,0,0,0-1.38-5.273,9.155,9.155,0,0,0-5.256-3.412,9.437,9.437,0,0,0-5.959.442,5.239,5.239,0,0,0-3.419,3.441C510.16,365.3,510.567,366.817,511.911,368.449Zm24.945,5.805a3.508,3.508,0,0,1-2.929-2.949,4.507,4.507,0,0,1-.384-2.435q.257-.957,1.89-.517a4.552,4.552,0,0,1,3.068,2.122,4.063,4.063,0,0,1,.711,3Q538.785,374.842,536.856,374.255Zm-18.509-5.9a4.139,4.139,0,0,1-2.584-1.908,3.646,3.646,0,0,1-.727-2.44q.288-1.074,2.907-.371a5.541,5.541,0,0,1,3.159,1.693,3.041,3.041,0,0,1,.668,2.248q-.522,1.662-3.424.778" transform="translate(-178.595 -126.027)" fill="#333290"/>
  <path id="Path_55671" data-name="Path 55671" d="M363.692-134.862h-242.2V-192.99h242.2Zm0,0" transform="translate(-41.937 467.919)" fill="none" stroke="#333290" stroke-width="6"/>
  <path id="Path_55672" data-name="Path 55672" d="M166.817,442.5a15.247,15.247,0,0,0-9.25-3,9.4,9.4,0,0,0-5.1,1.3l-1.289.871a19.52,19.52,0,0,0-1.794,2.066q-1.291,1.632-1.179,2.066l.84,1.847h2.806l4.2,4.2h-5.829v28.5l-4.279-3.969V451.852h-3.666l-4.165-4.2H145.4a18.38,18.38,0,0,1-1.289-1.391,2.6,2.6,0,0,1-.616-1.718,5.168,5.168,0,0,1,.618-2.669,21.181,21.181,0,0,1,2.8-3.545,14.917,14.917,0,0,1,4.037-2.455,8.875,8.875,0,0,1,3.923-.817q5.606,0,11.939,3.827a32.339,32.339,0,0,1,5.212,4.426l1.4,4.045-6.613-4.855" transform="translate(-48.379 -152.344)" fill="#333290"/>
  <path id="Path_55673" data-name="Path 55673" d="M159.183,458.757l-4.2-4.2h34.081l4.428,4.2Zm25.155,21.322a12.981,12.981,0,0,1-6.33,1.85A13.353,13.353,0,0,1,173.3,481a14.236,14.236,0,0,1-5.6-4.844,25.608,25.608,0,0,1-3.363-5.339,124.24,124.24,0,0,1-4.426-12.36l3.252,1.251q1.794,4.246,2.579,5.768a35.031,35.031,0,0,0,3.138,5.5q3.7,5.059,9.3,5.059a8.287,8.287,0,0,0,5.212-2.228,4.833,4.833,0,0,0,2.018-3.857,5.876,5.876,0,0,0-1.12-3.368,3.65,3.65,0,0,0-2.972-1.849,3.221,3.221,0,0,0-.729.11,4.912,4.912,0,0,1,.7,2.622q0,4.534-5.119,4.534a5,5,0,0,1-3.994-1.691,6.182,6.182,0,0,1-1.464-4.2,5.671,5.671,0,0,1,2.213-4.554,7.741,7.741,0,0,1,5.072-1.829,11.8,11.8,0,0,1,2.69.38q5.658,1.253,7.9,8.109a11.479,11.479,0,0,1,.616,3.646,8.911,8.911,0,0,1-4.874,8.217" transform="translate(-54.281 -159.259)" fill="#333290"/>
  <path id="Path_55674" data-name="Path 55674" d="M208.648,458.757l-4.2-4.2h34.081l4.426,4.2ZM233.8,480.079a12.984,12.984,0,0,1-6.33,1.85,13.35,13.35,0,0,1-4.705-.926,14.219,14.219,0,0,1-5.6-4.844,25.365,25.365,0,0,1-3.363-5.339,123.591,123.591,0,0,1-4.426-12.36l3.25,1.251q1.8,4.246,2.578,5.768a35.286,35.286,0,0,0,3.142,5.5q3.7,5.059,9.3,5.059a8.287,8.287,0,0,0,5.212-2.228,4.835,4.835,0,0,0,2.018-3.857,5.9,5.9,0,0,0-1.12-3.368,3.65,3.65,0,0,0-2.975-1.849,3.208,3.208,0,0,0-.727.11,4.929,4.929,0,0,1,.7,2.622q0,4.534-5.119,4.534a5,5,0,0,1-3.994-1.691,6.182,6.182,0,0,1-1.464-4.2,5.671,5.671,0,0,1,2.213-4.554,7.74,7.74,0,0,1,5.072-1.829,11.8,11.8,0,0,1,2.69.38q5.658,1.253,7.9,8.109a11.412,11.412,0,0,1,.618,3.646,8.911,8.911,0,0,1-4.875,8.217" transform="translate(-71.605 -159.259)" fill="#333290"/>
  <path id="Path_55675" data-name="Path 55675" d="M261.694,454.1l-.085-.923q-.262-2.668-.26-7.239l2.44,1.894a11.45,11.45,0,0,0,.721,2.975,4.594,4.594,0,0,0,.61.7h1.887l4.158,4.2h-5.7v29.63l-4.118-4.287V460.479a7.182,7.182,0,0,0-.224-1.466,4.1,4.1,0,0,0-1.595-2.359,4.516,4.516,0,0,0-2.773-.951H255.8l-4.143-3.875a40.4,40.4,0,0,1,4.034-.323q4.2,0,6,2.591" transform="translate(-88.191 -156.181)" fill="#333290"/>
  <path id="Path_55676" data-name="Path 55676" d="M301.193,458.757v29.065l-4.2-4.673v-12.66a3.971,3.971,0,0,0-1.32-1.739,3.126,3.126,0,0,0-1.938-.87,2.953,2.953,0,0,0-2.359,1.574q-4.658,6.891-6.232,7.11a8.983,8.983,0,0,1-1.123.053,5.074,5.074,0,0,1-2.584-.49q-1.688-.492-4.718-6.217l3.25-3.108a7.587,7.587,0,0,0,.729,2.888q.9,1.529,1.4,1.527.617,0,2.132-1.965l2.24-3.005q-.336-3.167-1.963-4.422-.84-.712-4.034-.82-2.861-.163-3.812-1.584c-.076-.109-.262-.381-.56-.82l-.671-.38-3.87-3.661h31.5l4.2,4.2ZM289.271,463.8l.619-.487a4.4,4.4,0,0,1,2.348-1.087q1.9,0,4.756,3.428v-6.9H286.979a6.2,6.2,0,0,1,2.293,5.046" transform="translate(-95.121 -159.231)" fill="#333290"/>
  <path id="Path_55677" data-name="Path 55677" d="M366.036,457.484q-.121-1.53-.242-3.061-.216-2.895-.214-9.239l3.194,3a2.871,2.871,0,0,0-.315,1.363q0,1.581,1.239,1.854a2.911,2.911,0,0,0,1.524-.242l4.337,4.2h-5.969v29.466l-4.683-4.683.323-14.98a9.1,9.1,0,0,0-1.378-4.221,11.145,11.145,0,0,0-2.838-3.567,5.21,5.21,0,0,0-3.825-1.146,6.269,6.269,0,0,0-4.388,2.2h1.627a6.859,6.859,0,0,1,4.229,1.281,5.091,5.091,0,0,1,1.991,3.676,7.322,7.322,0,0,1-1.234,4.2,20.719,20.719,0,0,1-2.69,3.813c-.446.51-1.085,1.216-1.9,2.124l-4.262-4.69a34.212,34.212,0,0,0,3.716-3.489q2.479-2.452,2.478-3.056c0-.363-.28-.544-.843-.544a8.7,8.7,0,0,0-2.475,1.148,7.115,7.115,0,0,1-3.032,1.145,2.825,2.825,0,0,1-1.35-.327,4.772,4.772,0,0,1-2.472-4.156,7.547,7.547,0,0,1,1.234-3.855,8.168,8.168,0,0,1,2.859-2.979,9.374,9.374,0,0,1,4.713-1.148q7.512,0,10.652,5.922" transform="translate(-121.421 -155.917)" fill="#333290"/>
  <path id="Path_55678" data-name="Path 55678" d="M398.359,458.434a4.9,4.9,0,0,0-2.8.873,3.525,3.525,0,0,0-1.57,2.291,8.87,8.87,0,0,0-.114,1.582,37.185,37.185,0,0,0,.671,6.492,72.392,72.392,0,0,1,1.234,7.907q0,4.909-5.1,8.018a8.347,8.347,0,0,1-3.868,1.418,1.989,1.989,0,0,1-1.963-1.413,1.315,1.315,0,0,1-.11-.49c0-.543.431-.941,1.289-1.193l1.736-.545a14.2,14.2,0,0,0,2.074-1.739,8.057,8.057,0,0,0,.9-3.315,24.819,24.819,0,0,0-1.009-5,29.63,29.63,0,0,1-1.064-6.088,12.324,12.324,0,0,1,1.569-5.977q1.008-1.249,1.908-2.5h-6.784l-4.317-4.2H396.96l4.483,4.2q-2.634-.322-3.083-.323" transform="translate(-133.527 -159.235)" fill="#333290"/>
  <path id="Path_55679" data-name="Path 55679" d="M409.737,454.1l-.086-.923q-.257-2.668-.26-7.239l2.442,1.894a11.471,11.471,0,0,0,.722,2.975,4.593,4.593,0,0,0,.61.7h1.885l4.16,4.2h-5.7v29.63l-4.118-4.287V460.479a6.933,6.933,0,0,0-.225-1.466,4.079,4.079,0,0,0-1.594-2.359,4.509,4.509,0,0,0-2.77-.951h-.954l-4.145-3.875a40.492,40.492,0,0,1,4.037-.323q4.2,0,6,2.591" transform="translate(-140.071 -156.181)" fill="#333290"/>
  <path id="Path_55680" data-name="Path 55680" d="M449.239,458.757v29.065l-4.2-4.673v-12.66a3.992,3.992,0,0,0-1.322-1.739,3.114,3.114,0,0,0-1.936-.87,2.945,2.945,0,0,0-2.359,1.574q-4.662,6.891-6.234,7.11a8.989,8.989,0,0,1-1.123.053,5.087,5.087,0,0,1-2.584-.49q-1.688-.492-4.718-6.217l3.252-3.108a7.541,7.541,0,0,0,.729,2.888c.6,1.019,1.062,1.527,1.4,1.527q.617,0,2.13-1.965l2.24-3.005q-.332-3.167-1.96-4.422-.844-.712-4.037-.82-2.857-.163-3.809-1.584c-.076-.109-.262-.381-.56-.82l-.674-.38-3.868-3.661h31.5l4.2,4.2ZM437.318,463.8l.615-.487a4.4,4.4,0,0,1,2.349-1.087q1.9,0,4.758,3.428v-6.9H435.025a6.21,6.21,0,0,1,2.293,5.046" transform="translate(-146.978 -159.231)" fill="#333290"/>
  <path id="Path_55681" data-name="Path 55681" d="M244.293,559.117a9.932,9.932,0,0,1-4.8,1.508,7.152,7.152,0,0,1-2.9-.875,3.592,3.592,0,0,1-2.352-3.361,4.463,4.463,0,0,1,1.252-3.043,6.6,6.6,0,0,1,2.949-1.925,5.41,5.41,0,0,1,1.748-.242,7.379,7.379,0,0,1,5,1.527,4.132,4.132,0,0,0,1-2.578,4.652,4.652,0,0,0-1.5-2.821,92,92,0,0,0-7.642-7.64q-2.65-2.331-2.649-4.425a3.616,3.616,0,0,1,2.013-3.356,3.351,3.351,0,0,1,1.663-.487,2.932,2.932,0,0,1,2.389,1.07,3.794,3.794,0,0,1,.878,2.48,6.113,6.113,0,0,1-.293,1.41,54.616,54.616,0,0,1,6.146,6.661,12.3,12.3,0,0,1,2.947,7.539q0,5.252-5.85,8.558" transform="translate(-82.094 -186.022)" fill="#333290"/>
  <path id="Path_55682" data-name="Path 55682" d="M269.856,536.052a20.233,20.233,0,0,0,4.1,1.468l4.6,1.365a12.548,12.548,0,0,1,5.8,4.007,10.875,10.875,0,0,1,2.452,6.4q.25,3.564-4.049,6.936-3.9,3.028-7.549,2.735l1-5.358a4.4,4.4,0,0,0,.1-.838,4.615,4.615,0,0,0-1.554-3.441,7.853,7.853,0,0,0-1.155-1.08,8.576,8.576,0,0,0-1.6-.394q-.553-.048-1.4,1.128a5.2,5.2,0,0,0-.9,2.8,1.628,1.628,0,0,0,.356,1.13q3.357-.291,3.358,2.811a3.436,3.436,0,0,1-.7,2.228,2.6,2.6,0,0,1-2.157,1.017,4.4,4.4,0,0,1-3.716-1.9,6.544,6.544,0,0,1-1.254-3.994,9.171,9.171,0,0,1,2.087-5.845,6.568,6.568,0,0,1,10.556-.414,7.882,7.882,0,0,1,2.213,5.376v.487l1.055-.729a3.273,3.273,0,0,0,1.206-2.384q.1-2.529-2.8-4.133l-7.147-2.677a20.379,20.379,0,0,1-5.25-2.919q-3.05-2.38-3.048-4.96a3.157,3.157,0,0,1,.1-.78q.8-3.063,3.156-3.063a2.9,2.9,0,0,1,2.177.9,3.006,3.006,0,0,1,.878,2.172,2.3,2.3,0,0,1-.9,1.953" transform="translate(-92.665 -185.889)" fill="#333290"/>
  <path id="Path_55683" data-name="Path 55683" d="M314.813,560.286a10.132,10.132,0,0,1-6.27-2.432,18.63,18.63,0,0,1-5.165-6.613,43.9,43.9,0,0,1-2.811-7.98,32.066,32.066,0,0,1-.752-5.155l2.72,1.168a29.593,29.593,0,0,0,1.862,6.5,35.6,35.6,0,0,0,3.724,5.919,7.879,7.879,0,0,0,6.646,3.018,6.621,6.621,0,0,0,4.607-1.655,5.564,5.564,0,0,0,1.836-4.335,5.1,5.1,0,0,0-.555-2.29,7.676,7.676,0,0,1-6.5,3.275,5.875,5.875,0,0,1-3.883-1.436,5.486,5.486,0,0,1-2.018-3.479l-.906-6.086a2.8,2.8,0,0,1-1.691-1.047,2.928,2.928,0,0,1-.681-1.872,2.584,2.584,0,0,1,1.052-2.167,3.518,3.518,0,0,1,2.454-.707q3.656.246,3.656,4.388v7.7c0,.585.3.86.9.827a3.405,3.405,0,0,0,1.96-.979c0-.033.477-.585,1.431-1.663a11.354,11.354,0,0,0,2.235-4.163q5.775,4.038,5.775,10.069a12.286,12.286,0,0,1-2.457,7.688,8.535,8.535,0,0,1-7.171,3.5" transform="translate(-105.051 -186.556)" fill="#333290"/>
  <path id="Path_55684" data-name="Path 55684" d="M350.3,558.679a9.293,9.293,0,0,1-7.261-2.192,6.725,6.725,0,0,1-2.651-5.167,4.334,4.334,0,0,1,.2-1.314,7.649,7.649,0,0,1,4.256-4.678,6.115,6.115,0,0,1-3.648-5.849,7.153,7.153,0,0,1,2.553-5.553,10.541,10.541,0,0,1,7.357-2.778,8.184,8.184,0,0,1,5.559,1.951,5.692,5.692,0,0,1,1.378,8.016,8.715,8.715,0,0,1-2.48,2.606q4.253,2,4.4,7.163a6.292,6.292,0,0,1-3.105,5.651A13.363,13.363,0,0,1,350.3,558.679Zm2.6-10.12a6.443,6.443,0,0,0-3.31-1.546,30.034,30.034,0,0,0-2.556,1.885,3.687,3.687,0,0,0-1.4,2.654A2.4,2.4,0,0,0,346.09,553q1.15,1.886,4.057,1.885,3.909,0,5.016-3.138A4.758,4.758,0,0,0,352.908,548.559Zm-2.657-14.182a5.077,5.077,0,0,0-2.793.835,2.7,2.7,0,0,0-1.5,2.312,3.96,3.96,0,0,0,1.594,3,7.213,7.213,0,0,0,3.195,1.524,23.2,23.2,0,0,0,2.543-1.572,3.417,3.417,0,0,0,1.549-2.41,3.137,3.137,0,0,0-1.449-2.654,5.3,5.3,0,0,0-3.144-1.032" transform="translate(-119.285 -185.933)" fill="#333290"/>
  <path id="Path_55685" data-name="Path 55685" d="M275.271,121.73s13.778,29.28-11.2,69.326S238.238,273.3,288.617,316.79c.863-19.377,9.043-49.95,24.975-78.8s3.015-81.813-38.322-116.261" transform="translate(-86.541 -42.272)" fill="#eb302e"/>
  <path id="Path_55686" data-name="Path 55686" d="M288.591,232.347c-7.34,12.479-10.95,24-10.95,35.027a49.8,49.8,0,0,0,.431,6.562c1.294,9.732,5.669,19.49,13.008,29.167a192.3,192.3,0,0,1,16.632-44.638c2.432-4.672,3.656-10.614,3.656-17.273,0-11.651-3.759-25.49-11.326-38.551a92.12,92.12,0,0,1-11.452,29.706" transform="translate(-97.256 -70.81)" fill="#fbea2a"/>
</svg>
